<?xml version="1.0" standalone="no"?>
<!DOCTYPE svg PUBLIC "-//W3C//DTD SVG 1.1//EN" "http://www.w3.org/Graphics/SVG/1.1/DTD/svg11.dtd" >
<svg xmlns="http://www.w3.org/2000/svg" xmlns:xlink="http://www.w3.org/1999/xlink" version="1.1">
<metadata>
Created by FontForge 20160407 at Fri May 27 12:14:27 2016
 By Jimmy Wärting
Published by www.milieugrotesque.com 2010, (c) Alexander Meyer - XYZ.CH, 2008
</metadata>
<defs>
<font id="LacrimaMG-SenzaBold" horiz-adv-x="620" >
  <font-face 
    font-family="LacrimaMG-Senza Bold"
    font-weight="700"
    font-stretch="normal"
    units-per-em="1000"
    panose-1="2 0 5 3 2 0 0 2 0 4"
    ascent="775"
    descent="-225"
    x-height="483"
    cap-height="653"
    bbox="-41.0622 -257 880.004 945.485"
    underline-thickness="50"
    underline-position="-100"
    stemh="74"
    stemv="74"
    unicode-range="U+0020-FB02"
  />
<missing-glyph horiz-adv-x="700" 
d="M100 0v700h500v-700h-500zM350 395l170 255h-340zM380 350l170 -255v510zM180 50h340l-170 255zM150 605v-510l170 255z" />
    <glyph glyph-name="fi" unicode="fi" horiz-adv-x="673" 
d="M419 536c-15 9 -85 54 -146 54c-20 0 -36 -11 -36 -69v-38h250c34 0 56 -13 56 -52v-357h53c25 0 37 -13 37 -37c0 -23 -12 -37 -37 -37h-175c-24 0 -38 16 -38 37c0 24 14 37 38 37h47v335h-231v-335h56c23 0 40 -16 40 -37s-12 -37 -39 -37h-200c-22 0 -39 16 -39 37
s13 37 39 37h69v335h-74c-21 0 -39 16 -39 37s13 37 39 37h74v39c0 90 31 142 112 142c57 0 149 -45 185 -67c17 -11 24 -33 13 -51c-13 -20 -37 -20 -54 -10z" />
    <glyph glyph-name="fl" unicode="fl" horiz-adv-x="684" 
d="M542 619v-545h54c25 0 37 -13 37 -37c0 -23 -12 -37 -37 -37h-184c-24 0 -38 16 -38 37c0 24 14 37 38 37h56v504l-70 -24l1 1c-10 -4 -25 -4 -36 2l-15 8h-1l-10 7c-14 8 -34 18 -65 18c-20 0 -36 -11 -36 -69v-38h88c24 1 40 -18 40 -37c0 -21 -13 -37 -39 -37h-89
v-335h56c23 0 40 -16 40 -37s-12 -37 -39 -37h-200c-22 0 -39 16 -39 37s13 37 39 37h69v335h-74c-21 0 -38 16 -38 37s12 37 38 37h74v39c0 90 31 142 112 142c45 0 82 -15 114 -35l92 33c29 9 62 -1 62 -43z" />
    <glyph glyph-name=".notdef" horiz-adv-x="700" 
d="M100 0v700h500v-700h-500zM350 395l170 255h-340zM380 350l170 -255v510zM180 50h340l-170 255zM150 605v-510l170 255z" />
    <glyph glyph-name=".null" horiz-adv-x="0" 
 />
    <glyph glyph-name="space" unicode=" " horiz-adv-x="350" 
 />
    <glyph glyph-name="percent" unicode="%" horiz-adv-x="568" 
d="M146 53l205 558c8 22 27 30 47 24c20 -7 31 -27 22 -51l-203 -559c-8 -23 -25 -30 -47 -23c-25 7 -34 25 -24 51zM333 140c0 87 34 147 102 147c69 0 106 -60 106 -147c0 -86 -35 -145 -106 -145c-89 0 -102 87 -102 145zM407 140c0 -43 9 -72 28 -72c22 0 31 29 31 72
c0 44 -9 76 -31 76c-19 0 -28 -32 -28 -76zM49 506c0 87 34 146 103 146s105 -59 105 -146c0 -86 -35 -145 -105 -145c-90 0 -103 87 -103 145zM124 506c0 -44 8 -73 28 -73c22 0 31 29 31 73c0 43 -9 75 -31 75c-20 0 -28 -32 -28 -75z" />
    <glyph glyph-name="ampersand" unicode="&#x26;" horiz-adv-x="565" 
d="M498 275c-3 -58 -28 -119 -65 -169c25 -21 56 -32 82 -32c20 0 39 -13 39 -37c0 -19 -14 -37 -39 -37c-38 0 -86 12 -134 53c-42 -36 -94 -58 -148 -58c-114 0 -176 62 -176 168c0 79 48 132 98 177c-36 53 -68 101 -69 157c-1 80 47 140 140 140c77 0 128 -64 128 -139
c0 -52 -49 -122 -100 -171c39 -54 84 -115 128 -166c24 35 40 73 45 119c3 29 20 37 37 37c18 0 36 -9 34 -42zM233 70c34 0 69 13 98 36c-42 48 -94 117 -134 171c-39 -37 -66 -72 -66 -114c0 -54 27 -93 102 -93zM160 498c1 -34 27 -76 49 -108c37 35 71 77 71 108
c0 32 -18 65 -54 65c-45 0 -67 -27 -66 -65z" />
    <glyph glyph-name="quotesingle" unicode="'" horiz-adv-x="344" 
d="M202 366c-21 0 -33 14 -33 34v101l-31 92v-1c-13 36 16 60 44 60h59c25 0 54 -23 42 -59l-31 -93v-100c0 -20 -9 -34 -32 -34h-18z" />
    <glyph glyph-name="parenleft" unicode="(" horiz-adv-x="328" 
d="M166 328c0 -120 33 -233 116 -316c19 -19 22 -36 3 -55c-21 -21 -38 -15 -55 0c-101 96 -140 232 -140 371s39 274 140 371c18 14 35 21 55 1c19 -19 16 -37 -3 -56c-83 -83 -116 -195 -116 -316z" />
    <glyph glyph-name="parenright" unicode=")" horiz-adv-x="328" 
d="M196 328c0 121 -33 233 -116 316c-19 19 -22 37 -3 56c20 20 37 13 53 -1c103 -97 142 -233 142 -371c0 -139 -39 -275 -142 -371c-16 -15 -32 -21 -53 0c-19 19 -16 36 3 55c83 83 116 196 116 316z" />
    <glyph glyph-name="plus" unicode="+" horiz-adv-x="595" 
d="M340 451v-160h161c21 0 43 -16 43 -44c0 -26 -22 -43 -43 -43h-161v-159c0 -27 -17 -45 -43 -45c-28 0 -44 21 -44 43v161h-158c-27 0 -45 17 -45 43c0 28 21 44 44 44h159v160c0 21 16 43 44 43c26 0 43 -22 43 -43z" />
    <glyph glyph-name="comma" unicode="," horiz-adv-x="389" 
d="M304 43c0 0 0 -44 -29 -73l-73 -73c-22 -22 -49 -22 -64 -7c-17 18 -21 41 -2 61l49 50c-38 4 -61 38 -61 77c0 46 44 77 86 77c61 0 94 -45 94 -112z" />
    <glyph glyph-name="hyphen" unicode="-" horiz-adv-x="427" 
d="M357 231h-272c-27 0 -45 17 -45 44c0 28 21 43 44 43h273c21 0 43 -15 43 -43c0 -27 -22 -44 -43 -44z" />
    <glyph glyph-name="period" unicode="." horiz-adv-x="374" 
d="M120 82c0 45 39 84 84 84c44 0 83 -39 83 -84c0 -44 -39 -83 -83 -83c-45 0 -84 39 -84 83z" />
    <glyph glyph-name="slash" unicode="/" horiz-adv-x="291" 
d="M46 51l138 552c7 28 28 37 48 34c24 -4 34 -22 28 -49l-139 -556c-8 -29 -28 -36 -48 -32c-20 5 -34 23 -27 51z" />
    <glyph glyph-name="zero" unicode="0" horiz-adv-x="551" 
d="M60 322c0 196 70 332 214 332c143 0 217 -136 217 -332s-70 -327 -217 -327c-189 0 -214 197 -214 327zM135 322c0 -150 43 -253 139 -253c97 0 141 103 141 253c0 148 -44 258 -141 258c-95 0 -139 -110 -139 -258z" />
    <glyph glyph-name="one" unicode="1" horiz-adv-x="500" 
d="M426 0h-265c-24 0 -39 14 -39 37c0 24 15 37 39 37h93v455c-32 -29 -74 -59 -117 -76c-19 -7 -41 -9 -53 18c-9 23 2 43 28 52c67 23 111 81 128 104c10 15 20 26 47 26c25 0 41 -23 41 -44v-535h98c24 0 39 -13 39 -37c0 -23 -15 -37 -39 -37z" />
    <glyph glyph-name="two" unicode="2" horiz-adv-x="517" 
d="M83 538c20 35 83 114 195 114c98 0 166 -59 166 -161c0 -60 -63 -119 -127 -181l-27 -27c-67 -66 -133 -142 -133 -191v-18h228v79c0 26 18 39 38 39c19 0 37 -13 37 -38v-108c0 -23 -19 -46 -44 -46h-289c-28 0 -44 23 -44 46v46c0 79 69 160 175 266l22 20
c32 29 90 83 90 113c0 48 -27 86 -92 86c-62 0 -108 -46 -129 -79c-17 -25 -45 -20 -57 -12c-17 12 -20 31 -9 52z" />
    <glyph glyph-name="three" unicode="3" horiz-adv-x="534" 
d="M82 101c-11 27 0 44 17 51c18 7 42 4 51 -23c13 -36 60 -59 108 -59c87 0 144 63 144 138c0 63 -17 118 -111 147c-30 8 -56 27 -26 68l93 144v12h-155l-18 -34c-9 -18 -29 -28 -49 -19c-21 10 -29 28 -19 48l29 57c7 13 19 22 31 22h218c24 0 38 -12 38 -37v-54
c0 -10 -3 -20 -10 -30l-76 -119c120 -51 129 -134 129 -205c0 -105 -79 -213 -217 -213c-65 0 -148 37 -177 106z" />
    <glyph glyph-name="four" unicode="4" horiz-adv-x="526" 
d="M490 213c0 -25 -12 -37 -36 -37h-99v-102h62c26 0 41 -11 41 -37c0 -25 -13 -37 -39 -37h-199c-26 0 -41 12 -41 37c0 26 15 37 41 37h61v102h-192c-28 0 -39 17 -39 40v49c0 8 2 15 5 20l210 349c8 13 18 19 29 19h24c25 0 37 -14 37 -41v-362h98c25 0 37 -12 37 -37z
M124 250h157v273l-157 -267v-6z" />
    <glyph glyph-name="five" unicode="5" horiz-adv-x="524" 
d="M402 208c0 88 -56 151 -149 151c-24 0 -55 -7 -81 -21c-35 -19 -66 -2 -60 40l31 244c3 20 13 31 34 31h211c26 0 40 -12 40 -37s-14 -37 -40 -37h-174l-19 -153c19 4 42 7 58 7c130 0 223 -84 223 -225c0 -105 -79 -213 -217 -213c-59 0 -149 36 -177 105
c-12 28 0 45 17 52c18 7 38 3 49 -23c16 -39 62 -59 110 -59c87 0 144 63 144 138z" />
    <glyph glyph-name="six" unicode="6" horiz-adv-x="504" 
d="M125 559c35 55 89 94 163 94c34 0 86 -9 119 -54c11 -16 9 -35 -4 -47c-12 -11 -32 -14 -54 6c-16 14 -43 20 -61 20c-51 0 -81 -21 -108 -64c-18 -29 -32 -85 -39 -139c36 26 82 41 135 41c112 0 195 -88 195 -204c0 -130 -77 -217 -196 -217c-135 0 -215 93 -215 293
c0 82 19 198 65 271zM397 212c0 76 -52 130 -122 130c-63 0 -115 -36 -140 -85c1 -107 43 -187 140 -187c75 0 122 56 122 142z" />
    <glyph glyph-name="seven" unicode="7" horiz-adv-x="435" 
d="M409 545c0 -75 -38 -132 -111 -222c-44 -58 -44 -166 -44 -286c0 -25 -19 -37 -38 -37s-37 12 -37 37c0 134 1 256 60 332c67 81 96 129 96 176v33h-202l-15 -94c-4 -25 -24 -35 -42 -33s-37 16 -33 42l18 111c6 39 27 48 55 48h242c41 0 51 -10 51 -52v-55z" />
    <glyph glyph-name="eight" unicode="8" horiz-adv-x="531" 
d="M100 484c0 95 79 168 166 168c86 0 167 -73 167 -168c0 -52 -25 -98 -61 -127c46 -37 85 -104 85 -167c0 -114 -89 -194 -191 -194s-191 80 -191 194c0 68 32 132 83 167c-34 30 -58 76 -58 127zM149 190c0 -68 50 -117 117 -117c68 0 116 49 116 117
c0 65 -41 127 -111 127h-9c-69 0 -113 -62 -113 -127zM175 484c0 -48 35 -93 88 -93h7c51 0 88 45 88 93c0 51 -41 90 -92 90c-49 0 -91 -39 -91 -90z" />
    <glyph glyph-name="nine" unicode="9" horiz-adv-x="494" 
d="M311 18c-33 -19 -73 -23 -97 -23c-32 0 -87 12 -111 42c-17 22 -13 44 2 55c14 12 32 12 51 -3c20 -16 48 -18 65 -18c16 0 34 3 52 12c48 23 80 94 93 189c-32 -28 -77 -45 -131 -45c-111 0 -195 93 -195 209c0 131 77 217 196 217c135 0 213 -88 213 -290
c0 -116 -36 -288 -138 -345zM115 436c0 -76 51 -135 121 -135c63 0 113 43 137 93c0 107 -42 185 -137 185c-75 0 -121 -56 -121 -143z" />
    <glyph glyph-name="colon" unicode=":" horiz-adv-x="374" 
d="M120 82c0 45 39 84 84 84c44 0 83 -39 83 -84c0 -44 -39 -83 -83 -83c-45 0 -84 39 -84 83zM120 370c0 44 39 83 84 83c44 0 83 -39 83 -83c0 -45 -39 -84 -83 -84c-45 0 -84 39 -84 84z" />
    <glyph glyph-name="semicolon" unicode=";" horiz-adv-x="389" 
d="M125 370c0 44 39 83 83 83s83 -39 83 -83c0 -45 -39 -84 -83 -84s-83 39 -83 84zM304 43c0 0 0 -44 -29 -73l-73 -73c-22 -22 -49 -22 -64 -7c-17 18 -21 41 -2 61l49 50c-38 4 -61 38 -61 77c0 46 44 77 86 77c61 0 94 -45 94 -112z" />
    <glyph glyph-name="less" unicode="&#x3c;" horiz-adv-x="582" 
d="M481 389l-283 -154c98 -54 186 -101 283 -154c28 -16 34 -37 20 -62c-12 -19 -38 -25 -58 -14l-331 183h1c-15 7 -33 22 -33 47c0 24 18 40 33 47h-1l331 183c20 11 46 4 58 -16c13 -25 7 -45 -20 -60z" />
    <glyph glyph-name="equal" unicode="=" horiz-adv-x="578" 
d="M453 291h-318c-27 0 -45 17 -45 43c0 28 21 44 44 44h319c21 0 43 -16 43 -44c0 -26 -22 -43 -43 -43zM453 140h-318c-27 0 -45 18 -45 44c0 28 21 43 44 43h319c21 0 43 -15 43 -43c0 -26 -22 -44 -43 -44z" />
    <glyph glyph-name="greater" unicode="&#x3e;" horiz-adv-x="582" 
d="M394 235l-283 154c-28 15 -34 35 -21 60c12 20 38 28 59 16l331 -183h-1c15 -7 33 -23 33 -47c0 -25 -18 -40 -33 -47h1l-331 -183c-21 -12 -47 -6 -59 14c-13 26 -7 46 21 62z" />
    <glyph glyph-name="question" unicode="?" horiz-adv-x="567" 
d="M295 640c80 0 162 -55 162 -162c0 -57 -47 -95 -85 -126c-14 -12 -31 -25 -37 -35c-23 -34 -19 -47 -19 -89v-18c0 -26 -19 -36 -37 -36c-19 0 -37 10 -37 36c0 66 -2 95 31 145c13 20 29 31 47 46c29 24 63 52 63 77c0 57 -42 87 -88 87c-63 0 -101 -23 -120 -78
c-9 -25 -28 -34 -50 -28c-21 7 -33 28 -23 56c24 70 82 125 193 125zM206 51c0 40 32 73 72 73s72 -33 72 -73s-32 -71 -72 -71s-72 31 -72 71z" />
    <glyph glyph-name="at" unicode="@" horiz-adv-x="1008" 
d="M723 -5c-58 0 -88 29 -105 79c-34 -50 -94 -79 -150 -79c-136 0 -183 99 -183 230c0 150 105 273 224 273c149 0 171 -86 171 -203v-48c0 -16 -1 -32 -1 -49c0 -67 5 -128 44 -128c83 0 83 105 83 194v15c0 220 -144 325 -310 325c-217 0 -344 -200 -344 -380
c0 -86 24 -176 78 -221c25 -21 27 -45 11 -62c-13 -14 -43 -22 -71 10c-67 75 -93 179 -93 273c0 220 155 454 419 454c221 0 384 -143 384 -399c0 -123 3 -284 -157 -284zM509 424c-80 0 -149 -96 -149 -199c0 -97 28 -155 108 -155c95 0 137 108 138 225
c1 90 -18 129 -97 129z" />
    <glyph glyph-name="A" unicode="A" horiz-adv-x="544" 
d="M387 169h-208l-37 -135c-8 -28 -23 -34 -42 -34c-29 0 -42 21 -35 46l161 573c5 18 20 34 41 34h32c21 0 37 -16 42 -34l161 -573c9 -31 -14 -46 -37 -46c-18 0 -34 7 -41 33zM202 245h163l-82 306z" />
    <glyph glyph-name="B" unicode="B" horiz-adv-x="548" 
d="M474 486c0 -68 -27 -110 -63 -137c44 -29 77 -81 77 -149c0 -105 -47 -200 -197 -200h-147c-29 0 -44 12 -44 43v567c0 31 15 43 44 43h142c112 0 188 -43 188 -167zM398 486c0 74 -56 91 -112 91h-110v-192h105c46 0 117 18 117 101zM412 200c0 67 -55 108 -131 108
h-105v-232h115c94 0 121 57 121 124z" />
    <glyph glyph-name="C" unicode="C" horiz-adv-x="557" 
d="M302 581c-99 0 -163 -105 -163 -253c0 -151 55 -256 163 -256c70 0 111 50 133 124c8 26 26 35 48 31c28 -5 32 -34 28 -50c-26 -95 -100 -182 -209 -182c-199 0 -242 202 -242 333c0 197 99 330 242 330c113 0 192 -84 209 -178c4 -22 -7 -42 -31 -47
c-23 -5 -41 5 -46 29c-14 74 -71 119 -132 119z" />
    <glyph glyph-name="D" unicode="D" horiz-adv-x="556" 
d="M145 653h90c185 0 267 -171 269 -335c2 -155 -78 -318 -249 -318h-110c-29 0 -45 12 -45 43v567c0 31 16 43 45 43zM176 577v-501h78c120 0 173 121 173 242c0 111 -56 259 -192 259h-59z" />
    <glyph glyph-name="E" unicode="E" horiz-adv-x="537" 
d="M176 300v-224h282c26 0 38 -14 38 -38s-12 -38 -38 -38h-314c-28 0 -44 12 -44 43v567c0 31 16 43 44 43h314c26 0 38 -14 38 -38s-12 -38 -38 -38h-282v-201h213c26 0 38 -14 38 -38s-12 -38 -38 -38h-213z" />
    <glyph glyph-name="F" unicode="F" horiz-adv-x="507" 
d="M177 300v-257c0 -33 -17 -43 -38 -43c-20 0 -39 12 -39 43v567c0 31 16 43 45 43h295c26 0 39 -14 39 -38s-13 -38 -39 -38h-263v-201h226c26 0 38 -14 38 -38s-12 -38 -38 -38h-226z" />
    <glyph glyph-name="G" unicode="G" horiz-adv-x="606" 
d="M301 -5c-199 0 -241 202 -241 333c0 197 98 330 241 330c113 0 190 -84 209 -178c5 -22 -6 -42 -31 -47c-23 -5 -41 1 -46 29c-13 74 -71 119 -132 119c-98 0 -162 -105 -162 -253c0 -151 54 -256 162 -256c53 0 92 23 114 59c16 24 19 55 19 86h-109
c-26 0 -41 12 -41 38s15 39 41 39h213c26 0 38 -14 38 -39c0 -26 -15 -38 -39 -38h-30c-2 -41 -6 -88 -29 -128c-31 -54 -95 -94 -177 -94z" />
    <glyph glyph-name="H" unicode="H" horiz-adv-x="578" 
d="M176 615v-230h245v230c0 26 14 38 38 38c25 0 38 -12 38 -38v-577c0 -26 -13 -38 -38 -38c-24 0 -38 12 -38 38v270h-245v-270c0 -26 -14 -38 -38 -38s-38 12 -38 38v577c0 26 14 38 38 38s38 -12 38 -38z" />
    <glyph glyph-name="I" unicode="I" horiz-adv-x="466" 
d="M411 616c0 -25 -14 -39 -39 -39h-90v-501h84c27 0 42 -14 42 -39s-15 -37 -42 -37h-241c-30 0 -44 12 -44 38s15 38 42 38h83v501h-84c-27 0 -42 14 -42 39c0 27 13 37 41 37h250c24 0 40 -10 40 -37z" />
    <glyph glyph-name="J" unicode="J" horiz-adv-x="433" 
d="M164 -5c-58 0 -100 20 -124 41c-22 19 -22 44 -7 59c12 12 37 18 59 -2c18 -16 38 -21 72 -21c69 0 130 61 130 146v359h-93c-20 0 -39 12 -39 38s14 38 39 38h126c31 0 43 -20 43 -46v-390c0 -145 -110 -222 -206 -222z" />
    <glyph glyph-name="K" unicode="K" horiz-adv-x="552" 
d="M100 38v577c0 26 14 38 39 38c24 0 38 -12 38 -38v-197c80 66 195 164 249 220c14 14 40 17 53 8c17 -13 23 -38 5 -57c-53 -59 -196 -182 -278 -246l311 -278c20 -17 16 -37 2 -53s-41 -16 -57 -2l-285 257v-229c0 -26 -14 -38 -38 -38c-25 0 -39 12 -39 38z" />
    <glyph glyph-name="L" unicode="L" horiz-adv-x="487" 
d="M431 0h-291c-22 0 -40 15 -40 41v574c0 26 14 38 38 38c25 0 38 -12 38 -38v-539h255c26 0 38 -14 38 -38s-12 -38 -38 -38z" />
    <glyph glyph-name="M" unicode="M" horiz-adv-x="694" 
d="M100 38v573c0 29 10 42 42 42h21c24 0 36 -14 46 -39l144 -368l144 368c10 25 21 39 45 39h21c26 0 42 -16 42 -40v-575c0 -26 -14 -38 -38 -38s-38 12 -38 38v452l-139 -347c-8 -19 -22 -30 -37 -30c-16 0 -30 11 -38 30l-139 347v-452c0 -26 -14 -38 -38 -38
s-38 12 -38 38z" />
    <glyph glyph-name="N" unicode="N" horiz-adv-x="570" 
d="M100 38v572c0 29 18 43 42 43h27c19 0 32 -9 40 -28l205 -461v451c0 26 14 38 38 38s38 -12 38 -38v-570c0 -32 -16 -47 -49 -47c-25 0 -41 13 -53 39l-212 479v-478c0 -26 -14 -38 -38 -38s-38 12 -38 38z" />
    <glyph glyph-name="O" unicode="O" horiz-adv-x="593" 
d="M60 328c0 197 98 329 241 329c142 0 245 -132 245 -329s-88 -333 -245 -333c-198 0 -241 202 -241 333zM139 328c0 -151 55 -256 162 -256c108 0 165 105 165 256c0 148 -66 253 -165 253c-98 0 -162 -105 -162 -253z" />
    <glyph glyph-name="P" unicode="P" horiz-adv-x="506" 
d="M100 39v572c0 26 13 42 41 42h147c111 0 198 -60 198 -185c0 -117 -66 -197 -228 -197h-82v-232c0 -25 -14 -39 -38 -39s-38 14 -38 39zM410 468c0 73 -52 109 -122 109h-112v-230h82c127 0 152 65 152 121z" />
    <glyph glyph-name="Q" unicode="Q" horiz-adv-x="573" 
d="M60 328c0 197 98 329 241 329c142 0 245 -132 245 -329c0 -135 -43 -242 -120 -295c13 -57 30 -61 57 -61c24 0 42 -15 42 -39s-18 -35 -43 -35c-61 0 -105 19 -128 103c-15 -4 -34 -6 -53 -6c-198 0 -241 202 -241 333zM139 328c0 -48 5 -93 17 -130c24 34 63 59 117 59
c94 0 124 -63 138 -132c34 46 55 118 55 203c0 148 -66 253 -165 253c-98 0 -162 -105 -162 -253zM273 181c-36 0 -58 -24 -73 -67c25 -28 58 -42 101 -42c14 0 27 0 39 4c-8 52 -17 105 -67 105z" />
    <glyph glyph-name="R" unicode="R" horiz-adv-x="551" 
d="M396 37c-6 60 -11 124 -44 179c-15 26 -33 52 -57 78h-119v-256c0 -26 -14 -38 -38 -38s-38 10 -38 37v574c0 25 10 42 41 42h156c111 0 189 -73 189 -186c0 -81 -47 -134 -106 -158c17 -22 32 -43 43 -64c34 -62 43 -132 49 -204c3 -28 -12 -41 -36 -41
c-23 0 -37 12 -40 37zM410 467c0 66 -45 110 -113 110h-121v-207h119c67 0 115 37 115 97z" />
    <glyph glyph-name="S" unicode="S" horiz-adv-x="578" 
d="M434 614c36 -29 60 -72 64 -121c1 -20 -7 -40 -35 -44c-22 -3 -39 10 -42 33c-5 42 -18 60 -35 74c-18 14 -47 25 -84 25c-65 0 -125 -25 -125 -94c0 -59 72 -86 137 -107c117 -37 203 -59 203 -198c0 -132 -84 -187 -214 -187c-72 0 -139 25 -188 98
c-19 28 -27 63 -32 116c-3 29 19 41 38 41s37 -11 38 -37c4 -41 10 -63 22 -80c27 -38 70 -61 122 -61c97 0 138 43 138 110c0 82 -58 99 -140 124c-108 32 -200 75 -200 181c0 120 95 171 201 171c61 0 104 -22 132 -44z" />
    <glyph glyph-name="T" unicode="T" horiz-adv-x="542" 
d="M58 653h437c26 0 38 -14 38 -38s-12 -38 -38 -38h-181v-539c0 -26 -14 -38 -38 -38s-38 12 -38 38v539h-180c-26 0 -38 14 -38 38s12 38 38 38z" />
    <glyph glyph-name="U" unicode="U" horiz-adv-x="548" 
d="M470 615v-424c0 -51 -19 -114 -57 -150c-35 -34 -75 -46 -127 -46c-54 0 -94 12 -129 46c-38 36 -57 99 -57 150v424c0 26 14 38 38 38c25 0 39 -12 39 -38v-415c0 -46 12 -85 35 -106c18 -17 42 -22 73 -22c32 0 55 5 74 22c23 21 35 60 35 106v415c0 26 14 38 38 38
s38 -12 38 -38z" />
    <glyph glyph-name="V" unicode="V" horiz-adv-x="514" 
d="M148 623l120 -476l121 476c6 23 26 35 47 30c25 -5 33 -24 27 -48l-141 -560c-6 -25 -28 -45 -53 -45s-47 20 -53 45l-141 559c-6 25 2 44 27 49c21 4 42 -8 46 -30z" />
    <glyph glyph-name="W" unicode="W" horiz-adv-x="736" 
d="M662 606l-104 -560c-6 -33 -15 -46 -45 -46c-22 0 -34 15 -45 42l-96 241l-97 -241c-11 -26 -22 -42 -44 -42c-30 0 -39 13 -45 46l-103 561c-4 23 3 40 28 46c22 5 42 -7 46 -31l84 -459l97 237c7 18 19 25 34 25s27 -7 34 -25l96 -237l84 459c4 23 26 35 48 31
c24 -5 33 -23 28 -47z" />
    <glyph glyph-name="X" unicode="X" horiz-adv-x="509" 
d="M427 601l-124 -252l156 -296c13 -25 -2 -48 -25 -53c-20 -4 -34 7 -44 25l-126 241l-114 -239c-10 -20 -24 -32 -46 -27c-24 5 -37 28 -25 53l143 293l-132 253c-13 25 1 49 25 54c20 4 35 -7 44 -25l102 -200l95 200c9 19 23 30 46 25c25 -5 35 -28 25 -52z" />
    <glyph glyph-name="Y" unicode="Y" horiz-adv-x="498" 
d="M450 602l-149 -295v-269c0 -26 -14 -38 -38 -38s-38 12 -38 38v269l-146 293c-12 25 2 49 25 53c21 4 37 -6 46 -25l113 -235l115 235c10 20 24 29 46 25c25 -5 35 -27 26 -51z" />
    <glyph glyph-name="Z" unicode="Z" horiz-adv-x="513" 
d="M443 0h-344c-25 0 -39 12 -39 38v27c0 9 4 25 9 33l303 479h-260c-25 0 -37 17 -37 38s14 38 37 38h295c23 0 42 -12 42 -38v-37c0 -14 -3 -21 -8 -29l-300 -473h302c25 0 38 -17 38 -38s-15 -38 -38 -38z" />
    <glyph glyph-name="dollar" unicode="$" horiz-adv-x="564" 
d="M322 659v-20c60 -10 100 -43 118 -65c26 -34 34 -61 37 -93c1 -20 -8 -39 -34 -43c-23 -3 -38 10 -41 32c-5 41 -18 58 -34 73c-11 9 -27 17 -46 21v-201c93 -30 174 -67 174 -185s-67 -173 -174 -182v-22c0 -22 -15 -39 -36 -39s-39 12 -39 39v24c-55 9 -107 36 -144 93
c-17 26 -27 64 -31 114c-2 27 18 39 38 39c18 0 35 -11 37 -36c3 -40 9 -62 21 -78c18 -28 45 -47 79 -55v234c-83 31 -157 78 -157 166c0 100 73 151 157 164v19c0 23 17 40 37 40c21 0 38 -13 38 -39zM421 178c0 68 -38 88 -99 108v-214c70 9 99 49 99 106zM164 475
c0 -44 37 -68 83 -87v176c-46 -9 -83 -36 -83 -89z" />
    <glyph glyph-name="exclam" unicode="!" horiz-adv-x="460" 
d="M250 194h-7c-28 0 -39 18 -39 37v92c-5 51 -12 91 -18 129l-9 55c-5 29 -7 44 -7 68c0 51 31 67 77 67s77 -16 77 -67c0 -24 -3 -39 -7 -68l-9 -55c-7 -38 -13 -78 -19 -129v-92c0 -19 -10 -37 -39 -37zM175 51c0 40 32 73 72 73s72 -33 72 -73s-32 -71 -72 -71
s-72 31 -72 71z" />
    <glyph glyph-name="bracketleft" unicode="[" horiz-adv-x="341" 
d="M307 645c0 -20 -9 -39 -38 -39h-103v-573h105c30 0 39 -22 39 -37s-7 -39 -41 -39h-126c-21 0 -51 10 -51 50v624c-2 34 14 50 45 50h132c29 0 38 -17 38 -36z" />
    <glyph glyph-name="backslash" unicode="\" horiz-adv-x="306" 
d="M121 606l139 -556c6 -25 -4 -45 -29 -50l1 1c-18 -4 -41 4 -47 32v-1l-139 556c-6 25 4 45 28 49c20 4 41 -4 47 -32v1z" />
    <glyph glyph-name="bracketright" unicode="]" horiz-adv-x="341" 
d="M62 645c0 19 9 36 38 36h132c31 0 46 -16 45 -50v-624c0 -40 -30 -50 -51 -50h-126c-34 0 -40 24 -40 39s9 37 39 37h104v573h-103c-29 0 -38 19 -38 39z" />
    <glyph glyph-name="asciicircum" unicode="^" horiz-adv-x="530" 
d="M320 610l148 -286c9 -22 -3 -47 -26 -51c-20 -4 -37 3 -47 23v-1l-122 231l-121 -231v1c-10 -20 -27 -27 -48 -23c-24 4 -36 29 -27 51l149 286c11 21 30 29 47 29s36 -8 47 -29z" />
    <glyph glyph-name="underscore" unicode="_" horiz-adv-x="656" 
d="M583 -150h-524c-41 0 -54 17 -54 43c0 28 14 44 52 44h526c39 0 52 -17 52 -45c0 -27 -13 -42 -52 -42z" />
    <glyph glyph-name="grave" unicode="`" 
d="M336 573l-174 100c-22 13 -33 41 -20 60l13 19c14 21 41 33 70 10l157 -125c12 -10 17 -28 7 -48l-5 -8c-12 -17 -32 -17 -48 -8z" />
    <glyph glyph-name="a" unicode="a" horiz-adv-x="515" 
d="M393 0c-37 0 -51 18 -51 50c-40 -33 -84 -55 -156 -55c-63 0 -141 37 -141 128c0 88 61 129 118 152l178 72c-5 46 -40 62 -95 62c-63 0 -92 -27 -113 -46c-15 -13 -39 -15 -54 1c-14 15 -11 39 3 54c40 41 91 65 164 65c105 0 170 -44 170 -160v-249h39
c19 0 39 -13 39 -37c0 -23 -16 -37 -39 -37h-62zM342 157v111l-163 -67c-26 -11 -59 -31 -59 -78c0 -41 43 -53 66 -53c61 0 107 29 156 87z" />
    <glyph glyph-name="b" unicode="b" horiz-adv-x="608" 
d="M217 279v-103c0 -46 60 -106 130 -106c81 0 128 72 128 175c0 97 -53 164 -127 164c-76 0 -131 -76 -131 -130zM347 -5c-60 0 -102 24 -131 46c-2 -27 -18 -41 -50 -41h-62c-23 0 -39 14 -39 37c0 24 19 37 39 37h39v522l-45 -15c-20 -7 -42 2 -47 21c-8 19 3 42 22 49
l82 29c29 10 62 -1 62 -43v-204c28 26 69 50 131 50c116 0 201 -95 201 -238c0 -144 -73 -250 -202 -250z" />
    <glyph glyph-name="c" unicode="c" horiz-adv-x="522" 
d="M387 292v61c-25 29 -63 56 -110 56c-82 0 -143 -74 -143 -168c0 -140 94 -171 139 -171c55 0 112 27 151 61c20 17 41 11 53 -1c13 -12 23 -35 -6 -57c-48 -36 -110 -78 -198 -78c-95 0 -213 70 -213 246c0 122 75 242 217 242c37 0 76 -11 110 -33c3 21 17 33 38 33
c25 0 37 -14 37 -41v-148c0 -29 -12 -43 -38 -43c-25 0 -37 15 -37 41z" />
    <glyph glyph-name="d" unicode="d" horiz-adv-x="594" 
d="M444 0c-34 0 -49 14 -52 41c-28 -22 -71 -46 -129 -46c-129 0 -203 106 -203 250c0 143 100 238 215 238c53 0 93 -17 117 -35v148l-45 -15c-20 -7 -41 2 -47 21c-7 20 3 42 22 49l82 29c29 10 62 -1 62 -43v-563h39c22 0 39 -16 39 -37s-12 -37 -39 -37h-61zM392 176
v113c0 64 -42 120 -117 120c-76 0 -140 -67 -140 -164c0 -103 46 -175 128 -175c69 0 129 60 129 106z" />
    <glyph glyph-name="e" unicode="e" horiz-adv-x="542" 
d="M425 212h-289c13 -113 88 -142 146 -142c45 0 102 23 144 61c15 14 41 10 52 -2c15 -17 13 -39 -7 -56c-43 -36 -110 -78 -189 -78c-122 0 -222 81 -222 252c0 115 70 236 217 236c93 0 194 -54 194 -219v-4c0 -34 -14 -48 -46 -48zM277 409c-77 0 -127 -49 -140 -123
h259c-6 89 -53 123 -119 123z" />
    <glyph glyph-name="f" unicode="f" horiz-adv-x="463" 
d="M419 536c-15 9 -85 54 -146 54c-20 0 -36 -11 -36 -69v-38h88c24 1 40 -18 40 -37c0 -21 -13 -37 -39 -37h-89v-335h102c22 0 40 -16 40 -37s-13 -37 -39 -37h-246c-22 0 -39 16 -39 37s13 37 39 37h69v335h-74c-21 0 -39 16 -39 37s13 37 39 37h74v39
c0 90 31 142 112 142c57 0 149 -45 185 -67c17 -11 24 -33 13 -51c-13 -20 -37 -20 -54 -10z" />
    <glyph glyph-name="g" unicode="g" horiz-adv-x="550" 
d="M245 -209c-56 0 -97 20 -121 40c-21 17 -18 40 -4 55c12 12 34 17 55 0c18 -16 37 -21 70 -21c69 0 127 63 127 151v29c-27 -25 -69 -50 -131 -50c-115 0 -201 96 -201 239s74 249 202 249c62 0 106 -25 134 -49c4 12 14 17 27 22l66 23c25 9 42 -2 50 -21
c7 -16 0 -41 -24 -49l-49 -17v-376c0 -147 -106 -225 -201 -225zM372 199v104c0 45 -60 106 -130 106c-81 0 -127 -73 -127 -175c0 -97 52 -164 126 -164c77 0 131 76 131 129z" />
    <glyph glyph-name="h" unicode="h" horiz-adv-x="632" 
d="M217 637v-255c82 77 139 101 187 101c74 0 96 -48 96 -105v-304h34c23 0 40 -16 40 -37s-13 -37 -39 -37h-134c-22 0 -39 16 -39 37s13 37 39 37h24v297c0 32 -8 42 -21 42c-31 0 -76 -12 -187 -129v-210h32c22 0 40 -16 40 -37s-13 -37 -39 -37h-135
c-21 0 -38 16 -38 37s12 37 38 37h28v521l-47 -15c-19 -6 -40 2 -47 22c-6 19 2 40 22 47l83 30c29 10 63 1 63 -42z" />
    <glyph glyph-name="i" unicode="i" horiz-adv-x="437" 
d="M223 74v323l-96 -35c-19 -7 -41 2 -47 22c-7 18 4 41 23 48l131 48c29 10 63 0 63 -42v-364h99c25 0 37 -13 37 -37c0 -23 -12 -37 -37 -37h-275c-24 0 -38 16 -38 37c0 24 14 37 38 37h102zM253 568h-4c-41 0 -64 36 -64 73c0 31 23 67 64 67h4c40 0 64 -36 64 -73
c0 -31 -24 -67 -64 -67z" />
    <glyph glyph-name="j" unicode="j" horiz-adv-x="442" 
d="M340 439v-405c0 -148 -106 -226 -201 -226c-55 0 -97 19 -121 40c-20 16 -19 41 -4 55c12 12 34 18 55 0c17 -14 36 -21 70 -21c69 0 127 64 127 152v363l-124 -43c-19 -7 -42 2 -48 23l1 -1c-8 18 3 41 22 48l161 57c29 10 62 0 62 -42zM292 708h3c41 0 65 -36 65 -73
c0 -31 -24 -67 -65 -67h-3c-41 0 -65 36 -65 73c0 31 24 67 65 67z" />
    <glyph glyph-name="k" unicode="k" horiz-adv-x="640" 
d="M524 424l-156 -140l168 -210h47c23 0 40 -16 40 -37s-12 -37 -39 -37h-155c-21 0 -39 16 -39 37s13 37 39 37h11l-129 161l-57 -53v-108h42c23 0 40 -16 40 -37s-13 -37 -39 -37h-163c-22 0 -39 16 -39 37s13 37 39 37h45v522l-68 -23c-20 -7 -40 1 -47 21
c-6 19 2 41 23 48l104 38c29 10 63 -1 63 -43v-356l219 197c13 12 41 11 52 0c16 -16 19 -33 -1 -54z" />
    <glyph glyph-name="l" unicode="l" horiz-adv-x="441" 
d="M291 638v-564h89c26 0 38 -13 38 -37c0 -23 -12 -37 -38 -37h-256c-24 0 -38 16 -38 37c0 24 14 37 38 37h92v523l-85 -31c-19 -7 -40 2 -47 22c-6 19 3 40 22 47l121 45c30 11 64 1 64 -42z" />
    <glyph glyph-name="m" unicode="m" horiz-adv-x="887" 
d="M238 438v-46c74 77 104 91 154 91c59 0 87 -37 92 -92c77 81 103 92 155 92c65 0 92 -41 92 -105v-304h29c23 0 40 -16 40 -37s-13 -37 -39 -37h-134c-22 0 -39 16 -39 37s13 37 39 37h30v303c0 21 -8 32 -18 32c-19 0 -31 0 -70 -37c-20 -19 -47 -46 -84 -89v-209h3
c23 0 40 -16 40 -37s-12 -37 -39 -37h-81c-22 0 -39 16 -39 37s12 37 39 37h2v303c0 21 -8 32 -18 32c-19 0 -32 0 -72 -38c-19 -19 -45 -47 -82 -88v-209h29c23 0 40 -16 40 -37s-13 -37 -39 -37h-134c-22 0 -39 16 -39 37s13 37 39 37h30v323l-69 -25c-18 -6 -40 3 -46 23
c-6 19 2 41 23 48l104 37c29 10 62 -1 62 -42z" />
    <glyph glyph-name="n" unicode="n" horiz-adv-x="636" 
d="M223 438v-56c81 77 132 101 182 101c70 0 101 -49 101 -124v-285h37c23 0 40 -16 40 -37s-13 -37 -39 -37h-146c-22 0 -39 16 -39 37s13 37 39 37h34v297c0 30 -9 42 -27 42c-31 0 -74 -15 -182 -129v-210h26c22 0 40 -16 40 -37s-13 -37 -39 -37h-137
c-22 0 -39 16 -39 37s12 37 39 37h36v323l-52 -17c-19 -8 -41 2 -47 21c-7 19 4 41 23 48l88 31c29 10 62 -1 62 -42z" />
    <glyph glyph-name="o" unicode="o" horiz-adv-x="548" 
d="M277 -5c-138 0 -217 107 -217 246c0 143 97 242 217 242c119 0 216 -99 216 -242c0 -139 -79 -246 -216 -246zM277 70c89 0 142 75 142 171c0 97 -64 168 -142 168s-143 -71 -143 -168c0 -96 53 -171 143 -171z" />
    <glyph glyph-name="p" unicode="p" horiz-adv-x="633" 
d="M72 439l104 37c27 10 60 0 62 -38c28 22 70 45 130 45c129 0 202 -106 202 -249s-100 -239 -215 -239c-52 0 -92 18 -117 36v-167h60c23 0 40 -16 40 -37s-13 -37 -39 -37h-191c-22 0 -39 16 -39 37s13 37 39 37h56v528l-68 -23c-19 -6 -41 2 -47 22c-6 19 2 41 23 48z
M238 303v-114c0 -63 43 -119 117 -119c76 0 141 67 141 164c0 102 -47 175 -128 175c-70 0 -130 -61 -130 -106z" />
    <glyph glyph-name="q" unicode="q" horiz-adv-x="608" 
d="M505 409h-39v-532l46 17c21 8 41 -1 49 -22c7 -19 -3 -41 -25 -49l-82 -29c-29 -10 -62 1 -62 43v208c-28 -25 -69 -50 -131 -50c-116 0 -201 96 -201 239s73 249 202 249c59 0 101 -24 130 -46c1 30 16 46 51 46h62c26 0 39 -16 39 -37s-17 -37 -39 -37zM392 199v104
c0 45 -60 106 -130 106c-82 0 -128 -73 -128 -175c0 -97 53 -164 127 -164c76 0 131 76 131 129z" />
    <glyph glyph-name="r" unicode="r" horiz-adv-x="561" 
d="M253 438v-55c58 56 121 100 169 100c58 0 97 -28 115 -83c14 -41 -3 -61 -31 -63c-23 -2 -35 8 -40 35c-4 22 -15 37 -45 37c-31 0 -94 -41 -168 -125v-210h90c26 0 37 -13 37 -37c0 -23 -11 -37 -37 -37h-234c-24 0 -38 16 -38 37c0 24 14 37 38 37h70v323l-68 -24
c-19 -7 -40 2 -47 22c-6 19 2 41 23 48l104 37c29 10 62 -1 62 -42z" />
    <glyph glyph-name="s" unicode="s" horiz-adv-x="535" 
d="M265 70c65 0 126 19 126 79c0 37 -62 53 -123 68c-86 21 -180 44 -180 134c0 88 81 132 177 132c42 0 80 -9 109 -24c6 16 18 24 37 24c24 0 36 -14 36 -41v-104c0 -29 -12 -43 -37 -43c-26 0 -37 15 -37 41v33c-23 28 -59 40 -108 40c-60 0 -103 -21 -103 -58
c0 -36 58 -48 119 -63c89 -21 184 -44 184 -139c0 -110 -88 -154 -200 -154c-52 0 -87 12 -113 28c-5 -16 -17 -23 -35 -23c-25 0 -37 14 -37 41v121c0 26 14 41 38 41s36 -15 36 -41v-39c20 -31 48 -53 111 -53z" />
    <glyph glyph-name="t" unicode="t" horiz-adv-x="501" 
d="M426 124c16 10 40 9 53 -10c11 -18 5 -41 -13 -51c-36 -22 -127 -68 -184 -68c-82 0 -113 53 -113 143v268h-87c-25 0 -37 18 -37 37c0 16 12 37 37 37h87v108c0 20 16 35 38 35c25 0 36 -15 36 -35v-108h139c24 0 37 -19 37 -37c0 -23 -13 -37 -37 -37h-139v-267
c0 -58 16 -69 37 -69c60 0 130 45 146 54z" />
    <glyph glyph-name="u" unicode="u" horiz-adv-x="630" 
d="M489 74h39c19 0 39 -13 39 -37c0 -23 -15 -37 -39 -37h-61c-38 0 -52 18 -52 52v44c-84 -84 -126 -101 -176 -101c-66 0 -98 55 -98 106v296l-45 -15c-20 -7 -41 1 -47 21c-6 18 3 41 22 48l82 29c29 10 63 -1 63 -42v-333c0 -24 10 -35 26 -35c35 0 62 4 173 127v249
c0 21 14 37 36 37c20 0 38 -16 38 -37v-372z" />
    <glyph glyph-name="v" unicode="v" horiz-adv-x="579" 
d="M209 409h-29l107 -295l107 295h-29c-26 0 -39 11 -39 37c0 21 16 37 39 37h149c23 0 35 -17 35 -36c0 -18 -12 -38 -35 -38h-41l-138 -371c-8 -23 -21 -38 -48 -38c-25 0 -38 14 -47 38l-139 371h-41c-23 0 -35 20 -35 38c0 19 12 36 35 36h149c23 0 39 -16 39 -37
c0 -26 -13 -37 -39 -37z" />
    <glyph glyph-name="w" unicode="w" horiz-adv-x="712" 
d="M614 409h-29l-75 -372c-5 -23 -20 -37 -43 -37c-18 0 -36 13 -44 34l-73 195l-73 -195c-8 -21 -26 -34 -44 -34c-23 0 -38 14 -43 37l-75 372h-29c-21 0 -36 18 -36 37c0 18 15 37 36 37h149c24 0 38 -16 38 -37c0 -24 -11 -37 -38 -37h-43l50 -261l61 168
c9 25 24 37 47 37s37 -12 46 -37l62 -169l50 262h-43c-27 0 -38 13 -38 37c0 21 14 37 38 37h149c21 0 36 -19 36 -37c0 -19 -15 -37 -36 -37z" />
    <glyph glyph-name="x" unicode="x" horiz-adv-x="642" 
d="M528 0h-151c-22 0 -39 16 -39 37s13 37 39 37h17l-89 126l-88 -126h34c23 0 40 -16 40 -37s-13 -37 -39 -37h-163c-21 0 -39 16 -39 37s13 37 39 37h41l133 188l-104 147h-65c-22 0 -39 16 -39 37s13 37 39 37h162c22 0 39 -16 39 -37s-12 -37 -39 -37h-9l58 -85l60 85
c-20 2 -34 17 -34 37c0 21 12 37 39 37h152c23 0 40 -16 40 -37s-12 -37 -39 -37h-71l-103 -147l130 -188h48c23 0 40 -16 40 -37s-13 -37 -39 -37z" />
    <glyph glyph-name="y" unicode="y" horiz-adv-x="614" 
d="M228 409h-29l108 -286l98 286h-26c-27 0 -38 13 -38 37c0 21 13 37 38 37h167c21 0 36 -19 36 -37c0 -19 -15 -37 -36 -37h-61l-189 -546h43c25 0 39 -16 39 -37c0 -24 -12 -37 -39 -37h-176c-21 0 -36 18 -36 37c0 18 15 37 36 37h53l54 152l-149 394h-59
c-22 0 -37 18 -37 37c0 18 15 37 37 37h166c25 0 39 -16 39 -37c0 -24 -11 -37 -39 -37z" />
    <glyph glyph-name="z" unicode="z" horiz-adv-x="540" 
d="M442 0h-318c-29 0 -56 31 -25 72l258 337h-188l-12 -65c-4 -22 -17 -38 -41 -35c-26 3 -37 19 -33 44l14 82c4 21 8 48 52 48h272c45 0 59 -38 29 -77l-255 -332h224v85c0 26 19 38 38 38c23 0 37 -12 37 -38v-107c0 -21 -10 -52 -52 -52z" />
    <glyph glyph-name="braceleft" unicode="{" horiz-adv-x="437" 
d="M365 -58c-90 0 -173 17 -173 145v116c0 40 -20 64 -65 64c-21 0 -37 18 -37 37s16 38 37 38c45 0 65 24 65 64v116c0 128 83 145 173 145c19 0 39 -15 39 -38c0 -27 -20 -38 -39 -38c-81 0 -97 -24 -97 -77v-113c0 -42 -17 -76 -42 -97c25 -20 42 -54 42 -96v-113
c0 -53 16 -77 97 -77c19 0 39 -11 39 -38c0 -23 -20 -38 -39 -38z" />
    <glyph glyph-name="bar" unicode="|" horiz-adv-x="272" 
d="M194 698v-815c0 -22 -16 -39 -37 -39s-37 13 -37 39v814c0 23 16 40 37 40s37 -13 37 -39z" />
    <glyph glyph-name="braceright" unicode="}" horiz-adv-x="437" 
d="M89 -58c-20 0 -39 15 -39 38c0 27 19 38 39 38c80 0 96 24 96 77v113c0 39 19 75 41 96c-22 22 -41 58 -41 97v113c0 53 -16 77 -96 77c-20 0 -39 11 -39 38c0 23 19 38 39 38c89 0 173 -17 173 -145v-116c0 -40 20 -64 65 -64c21 0 37 -19 37 -38s-16 -37 -37 -37
c-45 0 -65 -24 -65 -64v-116c0 -128 -84 -145 -173 -145z" />
    <glyph glyph-name="asciitilde" unicode="~" horiz-adv-x="539" 
d="M478 306c25 -18 27 -43 7 -66c-34 -38 -70 -54 -126 -54c-43 0 -77 15 -107 29c-22 10 -41 19 -57 19s-29 -7 -47 -25s-48 -24 -72 -3c-24 22 -19 48 0 67v-1c29 31 63 54 119 54c38 0 74 -15 104 -29c22 -10 43 -19 60 -19c28 0 37 7 54 23c27 24 49 19 66 5h-1z" />
    <glyph glyph-name="caron" unicode="&#x2c7;" 
d="M206 672h-1l109 -58l108 58h-1c16 9 32 8 46 -6l6 -6c17 -17 7 -38 -6 -49l-123 -90c-11 -7 -22 -10 -31 -10c-10 0 -20 4 -31 11l-123 89c-13 11 -22 32 -5 49l6 6c14 14 30 15 46 6z" />
    <glyph glyph-name="ogonek" unicode="&#x2db;" horiz-adv-x="594" 
d="M425 -202c-15 -30 -67 -55 -111 -55c-38 0 -70 9 -98 28c-29 19 -46 48 -46 84c0 20 4 37 16 50c7 9 23 20 38 26c27 11 33 26 33 42v20h71v-22c0 -43 -16 -66 -66 -87c-15 -7 -24 -12 -24 -29c0 -22 29 -44 63 -44h17c-6 9 -7 21 -8 29c-2 38 21 64 61 64
c36 0 61 -28 61 -66c0 -12 -2 -29 -7 -40z" />
    <glyph glyph-name="hungarumlaut" unicode="&#x2dd;" 
d="M257 781c23 0 65 -24 61 -69l-26 -164c-2 -19 -17 -34 -38 -34c-25 0 -35 24 -37 34l-5 38l-16 113c-7 47 20 82 61 82zM429 781c24 0 65 -24 61 -69l-26 -164c-1 -19 -17 -34 -38 -34c-25 0 -35 24 -37 34l-5 38l-16 113c-7 47 20 82 61 82z" />
    <glyph glyph-name="cedilla" unicode="&#xb8;" horiz-adv-x="553" 
d="M323 -25v-49c66 -6 116 -34 116 -89c0 -75 -65 -93 -123 -93c-37 0 -81 5 -106 23v-1c-15 10 -20 34 -10 49c8 10 27 19 46 10c12 -6 38 -12 70 -12c23 0 54 5 54 24c0 13 -26 20 -70 20c-37 0 -49 12 -49 49v69h72z" />
    <glyph glyph-name="ring" unicode="&#x2da;" horiz-adv-x="585" 
d="M219 623c0 54 43 97 97 97c55 0 98 -43 98 -97s-43 -97 -98 -97c-54 0 -97 43 -97 97zM288 623c0 -21 8 -28 28 -28s29 7 29 28c0 20 -9 27 -29 27s-28 -7 -28 -27z" />
    <glyph glyph-name="dotaccent" unicode="&#x2d9;" horiz-adv-x="599" 
d="M226 624c0 44 37 80 81 80s81 -36 81 -80c0 -45 -37 -81 -81 -81s-81 36 -81 81z" />
    <glyph glyph-name="breve" unicode="&#x2d8;" horiz-adv-x="605" 
d="M304 605c26 0 47 14 47 34c0 29 22 48 45 48c26 0 46 -22 46 -46c0 -80 -67 -125 -138 -125c-72 0 -136 45 -136 125c0 24 20 46 44 46c23 0 47 -19 47 -48c0 -20 18 -34 45 -34z" />
    <glyph glyph-name="macron" unicode="&#xaf;" 
d="M384 564h-153c-28 0 -46 17 -46 43c0 28 21 44 44 44h155c21 0 42 -16 42 -44c0 -26 -21 -43 -42 -43z" />
    <glyph glyph-name="tilde" unicode="&#x2dc;" horiz-adv-x="600" 
d="M455 611l-1 -1c-23 -29 -57 -43 -93 -43c-29 0 -53 9 -75 19l-6 2c-15 7 -33 13 -48 13c-2 0 -7 -4 -10 -6c-12 -16 -38 -29 -61 -16h1c-23 12 -22 50 -12 67c18 26 42 41 85 41c31 0 55 -9 78 -19c16 -7 33 -15 50 -15c10 0 16 5 23 13c16 16 47 15 60 6
c14 -13 24 -41 9 -61z" />
    <glyph glyph-name="circumflex" unicode="&#x2c6;" horiz-adv-x="610" 
d="M424 555l-108 57l-108 -57c-16 -9 -33 -9 -46 5l-9 9c-16 18 -5 36 8 46l124 89c12 8 22 11 31 11c10 0 20 -3 31 -11l122 -89c13 -10 25 -25 10 -44l-10 -11c-12 -15 -30 -14 -45 -5z" />
    <glyph glyph-name="dotlessi" unicode="&#x131;" horiz-adv-x="442" 
d="M198 74v323l-96 -35c-19 -7 -41 2 -47 22c-7 18 4 41 23 48l131 48c29 10 63 0 63 -42v-364h99c25 0 37 -13 37 -37c0 -23 -12 -37 -37 -37h-275c-24 0 -38 16 -38 37c0 24 14 37 38 37h102z" />
    <glyph glyph-name="perthousand" unicode="&#x2030;" horiz-adv-x="830" 
d="M575 140c0 87 34 147 103 147c68 0 105 -60 105 -147c0 -86 -35 -145 -105 -145c-90 0 -103 87 -103 145zM649 140c0 -43 9 -72 29 -72c21 0 30 29 30 72c0 44 -9 76 -30 76c-20 0 -29 -32 -29 -76zM146 53l205 558c8 22 27 30 47 24c20 -7 31 -27 22 -51l-203 -559
c-8 -23 -25 -30 -47 -23c-25 7 -34 25 -24 51zM333 140c0 87 34 147 102 147c69 0 106 -60 106 -147c0 -86 -35 -145 -106 -145c-89 0 -102 87 -102 145zM407 140c0 -43 9 -72 28 -72c22 0 31 29 31 72c0 44 -9 76 -31 76c-19 0 -28 -32 -28 -76zM49 506
c0 87 34 146 103 146s105 -59 105 -146c0 -86 -35 -145 -105 -145c-90 0 -103 87 -103 145zM124 506c0 -44 8 -73 28 -73c22 0 31 29 31 73c0 43 -9 75 -31 75c-20 0 -28 -32 -28 -75z" />
    <glyph glyph-name="quotedblbase" unicode="&#x201e;" horiz-adv-x="604" 
d="M523 43c0 -1 0 -43 -27 -70l-70 -70c-21 -21 -49 -18 -62 -4c-15 16 -22 35 -1 57l45 46c-35 5 -58 36 -58 73c0 45 45 74 82 74c61 0 91 -43 91 -106zM307 43c0 -1 0 -43 -27 -70l-70 -70c-21 -21 -49 -18 -62 -4c-15 16 -22 35 -1 57l45 46c-35 5 -58 36 -58 73
c0 45 45 74 82 74c61 0 91 -43 91 -106z" />
    <glyph glyph-name="quotesinglbase" unicode="&#x201a;" horiz-adv-x="389" 
d="M307 43c0 -1 0 -43 -27 -70l-70 -70c-21 -21 -49 -18 -62 -4c-15 16 -22 35 -1 57l45 46c-35 5 -58 36 -58 73c0 45 45 74 82 74c61 0 91 -43 91 -106z" />
    <glyph glyph-name="periodcentered" unicode="&#xb7;" horiz-adv-x="348" 
d="M120 245c0 38 33 71 71 71s72 -33 72 -71s-34 -72 -72 -72s-71 34 -71 72z" />
    <glyph glyph-name="guilsinglright" unicode="&#x203a;" horiz-adv-x="435" 
d="M359 241c0 -18 -11 -33 -19 -43l-132 -176c-16 -21 -43 -25 -59 -21c-36 10 -24 43 -7 66l131 174l-132 175c-13 17 -28 55 9 65c15 4 42 0 58 -21l132 -176c8 -11 19 -26 19 -43z" />
    <glyph glyph-name="guilsinglleft" unicode="&#x2039;" horiz-adv-x="435" 
d="M100 241c0 17 11 32 19 43l132 176c16 21 43 25 58 21c37 -10 22 -48 9 -65l-132 -175l131 -174c17 -23 29 -56 -7 -66c-16 -4 -43 0 -59 21l-132 176c-8 10 -19 25 -19 43z" />
    <glyph glyph-name="Euro" unicode="&#x20ac;" horiz-adv-x="533" 
d="M311 567c-74 0 -129 -59 -150 -152h160c25 0 41 -9 41 -38s-16 -37 -41 -37h-168c-1 -5 -1 -32 0 -36h168c24 0 40 -9 40 -37c0 -30 -16 -37 -41 -37h-163c16 -105 67 -160 154 -160c44 0 97 21 120 55c15 23 36 22 50 15c26 -11 27 -39 10 -62
c-36 -50 -111 -83 -180 -83c-156 0 -215 118 -231 235h-35c-29 0 -40 18 -40 37c0 18 11 37 38 37h33c-1 11 -1 25 0 36h-30c-29 0 -40 18 -40 37s11 38 38 38h39c26 140 111 227 228 227c77 0 124 -33 158 -73c21 -25 10 -55 -7 -61c-20 -7 -37 -5 -58 18
c-23 25 -53 41 -93 41z" />
    <glyph glyph-name="fraction" unicode="&#x2044;" horiz-adv-x="472" 
d="M483 579l-361 -564c-14 -17 -35 -20 -52 -9c-16 12 -22 31 -9 52l359 560c14 20 36 23 54 12c17 -12 22 -30 9 -51z" />
    <glyph glyph-name="divide" unicode="&#xf7;" horiz-adv-x="618" 
d="M234 110c0 39 35 75 75 75s76 -36 76 -75c0 -40 -36 -76 -76 -76s-75 36 -75 76zM490 231h-355c-27 0 -45 17 -45 44c0 28 21 43 43 43h357c20 0 42 -15 42 -43c0 -27 -22 -44 -42 -44zM234 440c0 39 35 75 75 75s76 -36 76 -75c0 -40 -36 -76 -76 -76s-75 36 -75 76z
" />
    <glyph glyph-name="quoteright" unicode="&#x2019;" horiz-adv-x="359" 
d="M271 562c0 -1 0 -43 -27 -70l-70 -70c-21 -21 -49 -18 -62 -4c-15 16 -23 36 -1 57l45 46c-35 5 -58 36 -58 73c0 45 45 74 82 74c61 0 91 -43 91 -106z" />
    <glyph glyph-name="quoteleft" unicode="&#x2018;" horiz-adv-x="389" 
d="M119 507c0 1 0 43 27 70l70 70c21 21 49 18 62 4c15 -16 23 -36 1 -57l-45 -46c35 -5 58 -36 58 -73c0 -45 -45 -74 -82 -74c-61 0 -91 43 -91 106z" />
    <glyph glyph-name="quotedblright" unicode="&#x201d;" horiz-adv-x="574" 
d="M494 562c0 -1 0 -43 -27 -70l-70 -70c-21 -21 -49 -18 -62 -4c-15 16 -23 36 -1 57l45 46c-35 5 -58 36 -58 73c0 45 45 74 82 74c61 0 91 -43 91 -106zM278 562c0 -1 0 -43 -27 -70l-70 -70c-21 -21 -49 -18 -62 -4c-15 16 -23 36 -1 57l45 46c-35 5 -58 36 -58 73
c0 45 45 74 82 74c61 0 91 -43 91 -106z" />
    <glyph glyph-name="quotedblleft" unicode="&#x201c;" horiz-adv-x="604" 
d="M126 507c0 1 0 43 27 70l70 70c21 21 49 18 62 4c15 -16 23 -36 1 -57l-45 -46c35 -5 58 -36 58 -73c0 -45 -45 -74 -82 -74c-61 0 -91 43 -91 106zM342 507c0 1 0 43 27 70l70 70c21 21 49 18 62 4c15 -16 23 -36 1 -57l-45 -46c35 -5 58 -36 58 -73
c0 -45 -45 -74 -82 -74c-61 0 -91 43 -91 106z" />
    <glyph glyph-name="emdash" unicode="&#x2014;" horiz-adv-x="711" 
d="M574 231h-439c-27 0 -45 17 -45 44c0 28 21 43 44 43h440c21 0 43 -15 43 -43c0 -27 -22 -44 -43 -44z" />
    <glyph glyph-name="endash" unicode="&#x2013;" horiz-adv-x="566" 
d="M458 231h-343c-27 0 -45 17 -45 44c0 28 20 43 43 43h345c21 0 43 -15 43 -43c0 -27 -22 -44 -43 -44z" />
    <glyph glyph-name="oe" unicode="&#x153;" horiz-adv-x="914" 
d="M277 -5c-138 0 -217 107 -217 246c0 143 97 242 217 242c72 0 137 -39 177 -101c33 61 93 101 182 101c93 0 195 -54 195 -219v-4c0 -34 0 -48 -47 -48h-289c12 -114 88 -142 146 -142c45 0 103 30 142 61c17 12 42 9 54 -2c14 -18 14 -39 -7 -56
c-46 -33 -110 -78 -189 -78c-77 0 -145 32 -185 99c-36 -61 -97 -99 -179 -99zM277 70c89 0 140 72 142 166v12c-3 94 -66 161 -142 161c-78 0 -142 -71 -142 -168c0 -96 52 -171 142 -171zM636 409c-76 0 -127 -49 -140 -123h259c-6 89 -53 123 -119 123z" />
    <glyph glyph-name="OE" unicode="&#x152;" horiz-adv-x="740" 
d="M646 0h-313c-169 0 -268 151 -268 328c0 183 102 325 276 325h305c24 0 40 -14 40 -39c0 -27 -16 -37 -40 -37h-212v-201h152c24 0 40 -14 40 -39c0 -27 -16 -37 -40 -37h-152v-224h212c24 0 40 -14 40 -39c0 -27 -16 -37 -40 -37zM332 76h26v501h-17
c-142 0 -197 -132 -197 -249c0 -148 75 -252 188 -252z" />
    <glyph glyph-name="ellipsis" unicode="&#x2026;" horiz-adv-x="696" 
d="M96 69c0 38 31 69 69 69c37 0 69 -31 69 -69c0 -36 -32 -69 -69 -69c-38 0 -69 33 -69 69zM303 69c0 38 31 69 69 69s69 -31 69 -69c0 -36 -31 -69 -69 -69s-69 33 -69 69zM510 69c0 38 32 69 70 69c37 0 69 -31 69 -69c0 -36 -32 -69 -69 -69c-38 0 -70 33 -70 69z" />
    <glyph glyph-name="guillemotright" unicode="&#xbb;" horiz-adv-x="648" 
d="M562 241c0 -18 -11 -33 -19 -43l-132 -176c-16 -21 -43 -25 -59 -21c-36 10 -31 43 -14 66l131 174l-132 175c-13 17 -21 55 16 65c15 4 42 0 58 -21l132 -176c8 -11 19 -26 19 -43zM356 241c0 -18 -11 -33 -19 -43l-132 -176c-16 -21 -43 -25 -59 -21
c-36 10 -31 43 -14 66l131 174l-132 175c-13 17 -21 55 16 65c15 4 42 0 58 -21l132 -176c8 -11 19 -26 19 -43z" />
    <glyph glyph-name="guillemotleft" unicode="&#xab;" horiz-adv-x="648" 
d="M100 241c0 17 11 32 19 43l132 176c16 21 43 25 58 21c37 -10 29 -48 16 -65l-132 -175l131 -174c17 -23 22 -56 -14 -66c-16 -4 -43 0 -59 21l-132 176c-8 10 -19 25 -19 43zM306 241c0 17 11 32 19 43l132 176c16 21 43 25 58 21c37 -10 29 -48 16 -65l-132 -175
l131 -174c17 -23 22 -56 -14 -66c-16 -4 -43 0 -59 21l-132 176c-8 10 -19 25 -19 43z" />
    <glyph glyph-name="approxequal" unicode="&#x2248;" horiz-adv-x="548" 
d="M479 220c24 -18 26 -43 6 -66c-34 -38 -70 -54 -126 -54c-43 0 -77 15 -107 29c-22 10 -41 19 -57 19s-29 -7 -47 -25s-48 -24 -72 -3c-24 22 -19 48 0 67v-1c29 31 63 54 119 54c38 0 74 -15 104 -29c22 -10 43 -19 60 -19c28 0 37 6 54 23c27 24 49 19 66 5zM479 395
c24 -18 26 -43 6 -66c-34 -38 -70 -54 -126 -54c-43 0 -77 15 -107 29c-22 10 -41 19 -57 19s-29 -7 -47 -25s-48 -24 -72 -3c-24 22 -19 48 0 67v-1c29 31 63 54 119 54c38 0 74 -15 104 -29c22 -10 43 -19 60 -19c28 0 37 6 54 23c27 24 49 19 66 5z" />
    <glyph glyph-name="exclamdown" unicode="&#xa1;" horiz-adv-x="567" 
d="M284 -172c-80 0 -162 55 -162 162c0 57 47 95 85 126c14 12 31 25 37 35c23 34 19 47 19 89v18c0 26 19 36 37 36c19 0 37 -10 37 -36c0 -66 2 -95 -31 -145c-13 -20 -29 -31 -47 -46c-29 -24 -63 -52 -63 -77c0 -57 42 -87 88 -87c63 0 101 23 120 78c9 25 28 34 50 28
c21 -7 33 -28 23 -56c-24 -70 -82 -125 -193 -125zM373 417c0 -40 -32 -73 -72 -73s-72 33 -72 73s32 71 72 71s72 -31 72 -71z" />
    <glyph glyph-name="questiondown" unicode="&#xbf;" horiz-adv-x="460" 
d="M243 274h7c28 0 39 -18 39 -37v-92c5 -51 12 -91 18 -129l9 -55c5 -29 7 -44 7 -68c0 -51 -31 -67 -77 -67s-77 16 -77 67c0 24 3 39 7 68l9 55c7 38 13 78 19 129v92c0 19 10 37 39 37zM318 417c0 -40 -32 -73 -72 -73s-72 33 -72 73s32 71 72 71s72 -31 72 -71z" />
    <glyph glyph-name="mu" unicode="&#xb5;" horiz-adv-x="682" 
d="M114 -131l110 526c-14 -5 -29 -10 -43 -14h1c-21 -8 -41 2 -47 26v-1c-4 17 -1 37 27 46l88 29h-1c32 11 68 -3 59 -48c-23 -110 -49 -229 -72 -340h1c-3 -15 1 -23 7 -23c33 0 70 13 215 145c16 77 36 158 52 235c4 19 20 33 39 33c22 0 38 -19 34 -42l-79 -367h14
c29 0 43 -12 39 -41c-4 -21 -21 -33 -45 -33h-43c-37 0 -52 23 -45 56l8 35c-96 -77 -147 -96 -195 -96c-8 0 -16 0 -22 2l-29 -137c-5 -19 -21 -32 -39 -32c-22 0 -38 17 -34 41z" />
    <glyph glyph-name="yen" unicode="&#xa5;" horiz-adv-x="534" 
d="M120 236h120v45h-118c-29 0 -40 18 -40 37c0 18 11 37 38 37h91l-123 246c-12 25 2 48 24 52c20 3 36 -5 45 -24l120 -245l123 245c9 19 23 28 44 24c24 -4 37 -27 25 -50l-127 -248h92c24 0 41 -9 41 -37c0 -30 -17 -37 -42 -37h-119v-45h120c24 0 41 -9 41 -37
c0 -30 -17 -37 -42 -37h-119v-125c0 -25 -13 -37 -37 -37c-23 0 -37 12 -37 37v125h-118c-29 0 -40 18 -40 37c0 18 11 37 38 37z" />
    <glyph glyph-name="plusminus" unicode="&#xb1;" horiz-adv-x="661" 
d="M329 498c31 0 46 -11 46 -50v-92h119c31 0 49 -13 49 -42c0 -30 -10 -42 -49 -42h-119v-96c0 -36 -15 -46 -46 -46c-29 0 -41 18 -41 46v96h-122c-35 0 -46 12 -46 42c0 29 18 42 46 42h122v91c0 32 12 51 41 51zM506 0h-343c-29 0 -43 20 -43 42c0 20 16 41 41 41h345
c23 0 41 -16 41 -41c0 -22 -18 -42 -41 -42z" />
    <glyph glyph-name="Oslash" unicode="&#xd8;" horiz-adv-x="613" 
d="M70 328c0 197 98 329 241 329c50 0 94 -16 131 -46l15 23c14 23 34 29 58 16h-1c19 -9 23 -35 14 -53l-30 -46c36 -57 57 -134 57 -223c0 -197 -88 -333 -244 -333c-55 0 -101 17 -135 43l-14 -24c-13 -19 -38 -21 -54 -13l1 -1c-23 10 -27 38 -15 56c10 16 18 27 29 44
c-40 69 -53 159 -53 228zM476 328c0 55 -10 105 -26 145c-79 -126 -150 -240 -231 -367c24 -21 55 -34 92 -34c108 0 165 105 165 256zM149 328c0 -57 7 -110 22 -150l230 367c-25 24 -53 36 -90 36c-98 0 -162 -105 -162 -253z" />
    <glyph glyph-name="AE" unicode="&#xc6;" horiz-adv-x="863" 
d="M695 0h-241c-32 0 -47 15 -47 46v123h-176l-51 -137c-7 -20 -11 -32 -42 -32c-30 0 -41 27 -34 47l211 582c5 13 19 24 34 24h346c24 0 40 -14 40 -39c0 -27 -16 -37 -40 -37h-212v-201h152c24 0 40 -14 40 -39c0 -27 -16 -37 -40 -37h-152v-224h212c24 0 40 -14 40 -39
c0 -27 -16 -37 -40 -37zM376 577l-118 -332h149v332h-31z" />
    <glyph glyph-name="notequal" unicode="&#x2260;" horiz-adv-x="518" 
d="M97 107l29 34c-21 4 -35 19 -35 43c0 28 21 43 43 43h65c24 29 26 30 54 64h-117c-27 0 -45 17 -45 43c0 28 21 44 43 44h192l69 81c15 18 44 19 60 9c17 -14 24 -36 8 -56l-29 -34h20c21 0 43 -16 43 -44c0 -26 -22 -43 -43 -43h-93c-24 -29 -26 -30 -54 -64h147
c21 0 43 -15 43 -43c0 -26 -22 -44 -43 -44h-220c-23 -27 -45 -55 -69 -82c-12 -15 -42 -18 -57 -9c-22 14 -23 43 -11 58z" />
    <glyph glyph-name="dieresis" unicode="&#xa8;" 
d="M407 611h-3c-41 0 -65 35 -65 72c0 32 24 68 65 68h3c41 0 65 -36 65 -73c0 -32 -24 -67 -65 -67zM213 611h-3c-41 0 -65 35 -65 72c0 32 24 68 65 68h3c41 0 65 -36 65 -73c0 -32 -24 -67 -65 -67z" />
    <glyph glyph-name="acute" unicode="&#xb4;" 
d="M426 673l-174 -100c-16 -9 -36 -9 -48 8l-5 8c-10 20 -5 38 7 48l157 125c29 23 56 11 70 -10l13 -19c13 -19 2 -47 -20 -60z" />
    <glyph glyph-name="trademark" unicode="&#x2122;" horiz-adv-x="802" 
d="M384 364v232c0 34 15 40 37 40h9c20 0 30 -8 37 -28l34 -115c1 -3 1 -4 3 -4s2 1 3 4l34 115c7 20 17 28 37 28h9c15 0 37 -6 37 -40v-232c0 -23 -10 -39 -36 -39c-25 0 -35 16 -35 39v45l8 74c0 2 -1 2 -2 2s-2 0 -3 -2l-18 -68c-8 -22 -19 -23 -34 -23
c-14 0 -25 3 -33 24l-19 67c-1 2 -2 2 -3 2s-2 0 -2 -2l8 -74v-45c0 -23 -10 -39 -35 -39c-26 0 -36 16 -36 39zM148 636h170c24 0 39 -10 39 -35c0 -26 -15 -36 -39 -36h-50v-201c0 -23 -10 -39 -35 -39s-35 16 -35 39v201h-50c-24 0 -39 10 -39 36c0 25 15 35 39 35z" />
    <glyph glyph-name="copyright" unicode="&#xa9;" horiz-adv-x="887" 
d="M110 330c0 187 149 337 337 337c187 0 337 -150 337 -337c0 -188 -150 -337 -337 -337c-188 0 -337 149 -337 337zM187 330c0 -144 116 -262 260 -262c142 0 261 118 261 262c0 142 -119 261 -261 261c-144 0 -260 -119 -260 -261zM447 464c-59 0 -93 -54 -93 -136
c0 -76 34 -134 97 -134c35 0 55 21 67 38c7 10 16 30 39 23c22 -7 26 -24 22 -37c-14 -39 -58 -86 -128 -86c-130 0 -163 118 -163 196c0 125 68 199 159 199c75 0 124 -52 134 -86c5 -16 4 -37 -16 -44c-21 -7 -32 1 -40 16c-14 28 -36 51 -78 51z" />
    <glyph glyph-name="registered" unicode="&#xae;" horiz-adv-x="711" 
d="M395 420c-2 18 -9 29 -26 42h-25v-43c0 -15 -6 -21 -20 -21c-12 0 -19 6 -19 21v137c0 11 5 26 20 26h45c38 0 65 -23 65 -61c0 -21 -14 -38 -28 -46c8 -7 25 -25 28 -55c1 -10 -3 -21 -17 -22c-9 -1 -21 3 -23 22zM394 521c0 14 -10 23 -24 23h-26v-43h26
c14 0 24 5 24 20zM180 484c0 104 84 189 189 189c103 0 189 -85 189 -189c0 -105 -86 -189 -189 -189c-105 0 -189 84 -189 189zM222 484c0 -83 63 -146 147 -146c83 0 146 63 146 146c0 82 -63 147 -146 147c-84 0 -147 -65 -147 -147z" />
    <glyph glyph-name="germandbls" unicode="&#xdf;" horiz-adv-x="635" 
d="M305 689c66 0 133 -46 133 -123c0 -48 -13 -75 -36 -101c-14 -14 -26 -30 -26 -42c0 -48 59 -80 98 -99l8 -4c63 -33 111 -75 114 -168c1 -82 -50 -157 -164 -157c-104 0 -152 56 -152 140c0 17 16 35 37 35c23 0 37 -14 37 -36c1 -40 19 -64 78 -64c67 0 90 41 89 82
c0 59 -34 83 -72 102c-74 38 -148 81 -148 169c0 38 23 68 47 94c15 17 15 31 15 49c0 27 -25 48 -58 48c-54 0 -80 -28 -79 -126v-436c0 -33 -16 -52 -54 -52h-66c-25 0 -36 18 -36 37c0 26 18 37 38 37h43v414c0 127 33 201 154 201z" />
    <glyph glyph-name="paragraph" unicode="&#xb6;" horiz-adv-x="732" 
d="M523 38v547c0 33 23 52 53 52h118c23 0 37 -19 37 -37c0 -24 -14 -37 -37 -37h-95v-526c0 -21 -19 -37 -37 -37c-27 0 -39 15 -39 38zM285 637h144c28 0 38 -18 39 -36c1 -19 -11 -38 -40 -38h-37v-526c0 -21 -19 -37 -37 -37c-26 0 -39 15 -39 38v227h-25
c-134 0 -226 83 -226 188c0 131 86 183 221 184zM314 563h-29c-106 0 -146 -40 -146 -109c0 -58 46 -115 150 -115h25v224z" />
    <glyph glyph-name="bullet" unicode="&#x2022;" horiz-adv-x="430" 
d="M134 269c0 61 49 110 110 110s109 -49 109 -110s-48 -110 -109 -110s-110 49 -110 110z" />
    <glyph glyph-name="section" unicode="&#xa7;" horiz-adv-x="601" 
d="M202 314l147 -109c51 2 65 33 67 53c4 37 -10 60 -44 85l-146 109c-52 -3 -65 -33 -67 -53c-3 -37 10 -60 43 -85zM281 -31c57 0 107 20 107 65c0 29 -13 61 -63 98l-172 127c-56 42 -74 87 -69 146c4 38 25 82 72 105c-33 36 -44 70 -44 113c0 96 83 139 182 139
c107 0 147 -79 169 -127c14 -31 1 -52 -21 -58c-23 -6 -38 2 -48 27c-21 56 -56 84 -100 84c-59 0 -107 -21 -107 -65c0 -29 12 -61 62 -98l172 -127c55 -41 74 -89 69 -147c-3 -40 -22 -82 -71 -105c31 -35 43 -70 43 -112c0 -96 -82 -139 -181 -139
c-107 0 -148 79 -170 127c-13 31 -3 51 17 57c26 8 42 0 52 -26c21 -56 57 -84 101 -84z" />
    <glyph glyph-name="sterling" unicode="&#xa3;" horiz-adv-x="543" 
d="M269 567c-37 0 -76 -17 -76 -70c0 -26 10 -57 22 -87h164c25 0 41 -11 41 -38c0 -29 -16 -39 -42 -39h-127l8 -13c21 -34 37 -72 37 -114c0 -38 -9 -66 -27 -94c20 -3 40 -12 69 -24c18 -8 41 -18 50 -18c20 0 26 4 34 12c13 13 38 15 54 0c19 -17 18 -38 -8 -60
c-26 -23 -45 -27 -80 -27c-23 0 -48 10 -73 21c-35 16 -58 22 -79 22c-31 0 -61 -14 -98 -35c-13 -8 -42 -12 -55 11c-15 22 -7 42 18 58l26 17c49 32 94 61 94 117c0 22 -13 52 -27 77c-13 23 -22 36 -29 50h-61c-29 0 -40 20 -40 39c0 18 11 38 38 38h32
c-9 28 -15 58 -15 87c0 108 82 145 150 145c106 -1 153 -60 177 -129c10 -28 -2 -48 -22 -55c-24 -8 -41 2 -50 27c-18 52 -45 82 -105 82z" />
    <glyph glyph-name="cent" unicode="&#xa2;" horiz-adv-x="521" 
d="M309 510v-30c27 -4 55 -13 78 -29c3 21 17 32 38 32c25 0 37 -14 37 -41v-160c0 -29 -12 -43 -38 -43c-25 0 -37 15 -37 41v73c-19 24 -45 45 -78 52v-333c42 10 86 33 115 59c20 17 42 12 54 0c13 -12 22 -36 -7 -58c-41 -30 -93 -64 -162 -74v-32c0 -24 -7 -40 -35 -40
s-37 17 -37 39v33c-86 15 -177 88 -177 242c0 110 62 218 177 238v31c0 30 12 42 36 42s36 -12 36 -42zM134 241c0 -108 56 -151 103 -166v327c-61 -20 -103 -84 -103 -161z" />
    <glyph glyph-name="degree" unicode="&#xb0;" horiz-adv-x="454" 
d="M111 563c0 71 57 128 129 128c71 0 129 -57 129 -128c0 -72 -58 -129 -129 -129c-72 0 -129 57 -129 129zM185 563c0 -31 24 -56 55 -56c30 0 54 25 54 56c0 30 -24 54 -54 54c-31 0 -55 -24 -55 -54z" />
    <glyph glyph-name="dagger" unicode="&#x2020;" horiz-adv-x="474" 
d="M388 409h-114v-371c0 -24 -10 -38 -36 -38c-25 0 -38 14 -38 38v371h-111c-26 0 -41 11 -41 37c0 25 13 37 40 37h112v113c0 27 13 41 38 41c26 0 36 -14 36 -41v-113h113c23 0 40 -12 40 -37c0 -26 -15 -37 -39 -37z" />
    <glyph glyph-name="Adieresis" unicode="&#xc4;" horiz-adv-x="582" 
d="M406 169h-208l-37 -135c-8 -28 -23 -34 -42 -34c-29 0 -42 21 -35 46l161 573c5 18 20 34 41 34h32c21 0 37 -16 42 -34l161 -573c9 -31 -14 -46 -37 -46c-18 0 -34 7 -41 33zM221 245h163l-82 306zM402 751h-3c-41 0 -65 35 -65 72c0 32 24 68 65 68h3
c41 0 65 -36 65 -73c0 -32 -24 -67 -65 -67zM208 751h-3c-41 0 -65 35 -65 72c0 32 24 68 65 68h3c41 0 65 -36 65 -73c0 -32 -24 -67 -65 -67z" />
    <glyph glyph-name="Aring" unicode="&#xc5;" horiz-adv-x="582" 
d="M406 169h-208l-37 -135c-8 -28 -23 -34 -42 -34c-29 0 -42 21 -35 46l161 573c5 18 20 34 41 34h32c21 0 37 -16 42 -34l161 -573c9 -31 -14 -46 -37 -46c-18 0 -34 7 -41 33zM221 245h163l-82 306zM205 790c0 54 43 97 97 97c55 0 98 -43 98 -97s-43 -97 -98 -97
c-54 0 -97 43 -97 97zM274 790c0 -21 8 -28 28 -28s29 7 29 28c0 20 -9 27 -29 27s-28 -7 -28 -27z" />
    <glyph glyph-name="Ccedilla" unicode="&#xc7;" horiz-adv-x="625" 
d="M302 581c-99 0 -163 -105 -163 -253c0 -151 55 -256 163 -256c70 0 111 50 133 124c8 26 26 35 48 31c28 -5 32 -34 28 -50c-26 -95 -100 -182 -209 -182c-199 0 -242 202 -242 333c0 197 99 330 242 330c113 0 192 -84 209 -178c4 -22 -7 -42 -31 -47
c-23 -5 -41 5 -46 29c-14 74 -71 119 -132 119zM322 3v-49c66 -6 116 -34 116 -89c0 -75 -65 -93 -123 -93c-37 0 -81 5 -106 23v-1c-15 10 -20 34 -10 49c8 10 27 19 46 10c12 -6 38 -12 70 -12c23 0 54 5 54 24c0 13 -26 20 -70 20c-37 0 -49 12 -49 49v69h72z" />
    <glyph glyph-name="Eacute" unicode="&#xc9;" horiz-adv-x="537" 
d="M176 300v-224h282c26 0 38 -14 38 -38s-12 -38 -38 -38h-314c-28 0 -44 12 -44 43v567c0 31 16 43 44 43h314c26 0 38 -14 38 -38s-12 -38 -38 -38h-282v-201h213c26 0 38 -14 38 -38s-12 -38 -38 -38h-213zM471 833l-174 -100c-16 -9 -36 -9 -48 8l-5 8
c-10 20 -5 38 7 48l157 125c29 23 56 11 70 -10l13 -19c13 -19 2 -47 -20 -60z" />
    <glyph glyph-name="Ntilde" unicode="&#xd1;" horiz-adv-x="675" 
d="M145 38v572c0 29 18 43 42 43h27c19 0 32 -9 40 -28l205 -461v451c0 26 14 38 38 38s38 -12 38 -38v-570c0 -32 -16 -47 -49 -47c-25 0 -41 13 -53 39l-212 479v-478c0 -26 -14 -38 -38 -38s-38 12 -38 38zM510 799l-1 -1c-23 -29 -57 -43 -93 -43c-29 0 -53 9 -75 19
l-6 2c-15 7 -33 13 -48 13c-2 0 -7 -4 -10 -6c-12 -16 -38 -29 -61 -16h1c-23 12 -22 50 -12 67c18 26 42 41 85 41c31 0 55 -9 78 -19c16 -7 33 -15 50 -15c10 0 16 5 23 13c16 16 47 15 60 6c14 -13 24 -41 9 -61z" />
    <glyph glyph-name="Odieresis" unicode="&#xd6;" horiz-adv-x="593" 
d="M60 328c0 197 98 329 241 329c142 0 245 -132 245 -329s-88 -333 -245 -333c-198 0 -241 202 -241 333zM139 328c0 -151 55 -256 162 -256c108 0 165 105 165 256c0 148 -66 253 -165 253c-98 0 -162 -105 -162 -253zM402 750h-3c-41 0 -65 35 -65 72c0 32 24 68 65 68h3
c41 0 65 -36 65 -73c0 -32 -24 -67 -65 -67zM208 750h-3c-41 0 -65 35 -65 72c0 32 24 68 65 68h3c41 0 65 -36 65 -73c0 -32 -24 -67 -65 -67z" />
    <glyph glyph-name="Udieresis" unicode="&#xdc;" 
d="M506 615v-424c0 -51 -19 -114 -57 -150c-35 -34 -75 -46 -127 -46c-54 0 -94 12 -129 46c-38 36 -57 99 -57 150v424c0 26 14 38 38 38c25 0 39 -12 39 -38v-415c0 -46 12 -85 35 -106c18 -17 42 -22 73 -22c32 0 55 5 74 22c23 21 35 60 35 106v415c0 26 14 38 38 38
s38 -12 38 -38zM424 751h-3c-41 0 -65 35 -65 72c0 32 24 68 65 68h3c41 0 65 -36 65 -73c0 -32 -24 -67 -65 -67zM230 751h-3c-41 0 -65 35 -65 72c0 32 24 68 65 68h3c41 0 65 -36 65 -73c0 -32 -24 -67 -65 -67z" />
    <glyph glyph-name="aacute" unicode="&#xe1;" horiz-adv-x="515" 
d="M393 0c-37 0 -51 18 -51 50c-40 -33 -84 -55 -156 -55c-63 0 -141 37 -141 128c0 88 61 129 118 152l178 72c-5 46 -40 62 -95 62c-63 0 -92 -27 -113 -46c-15 -13 -39 -15 -54 1c-14 15 -11 39 3 54c40 41 91 65 164 65c105 0 170 -44 170 -160v-249h39
c19 0 39 -13 39 -37c0 -23 -16 -37 -39 -37h-62zM342 157v111l-163 -67c-26 -11 -59 -31 -59 -78c0 -41 43 -53 66 -53c61 0 107 29 156 87zM394 664l-174 -100c-16 -9 -36 -9 -48 8l-5 8c-10 20 -5 38 7 48l157 125c29 23 56 11 70 -10l13 -19c13 -19 2 -47 -20 -60z" />
    <glyph glyph-name="agrave" unicode="&#xe0;" horiz-adv-x="515" 
d="M393 0c-37 0 -51 18 -51 50c-40 -33 -84 -55 -156 -55c-63 0 -141 37 -141 128c0 88 61 129 118 152l178 72c-5 46 -40 62 -95 62c-63 0 -92 -27 -113 -46c-15 -13 -39 -15 -54 1c-14 15 -11 39 3 54c40 41 91 65 164 65c105 0 170 -44 170 -160v-249h39
c19 0 39 -13 39 -37c0 -23 -16 -37 -39 -37h-62zM342 157v111l-163 -67c-26 -11 -59 -31 -59 -78c0 -41 43 -53 66 -53c61 0 107 29 156 87zM234 563l-174 100c-22 13 -33 41 -20 60l13 19c14 21 41 33 70 10l157 -125c12 -10 17 -28 7 -48l-5 -8c-12 -17 -32 -17 -48 -8z
" />
    <glyph glyph-name="acircumflex" unicode="&#xe2;" horiz-adv-x="515" 
d="M393 0c-37 0 -51 18 -51 50c-40 -33 -84 -55 -156 -55c-63 0 -141 37 -141 128c0 88 61 129 118 152l178 72c-5 46 -40 62 -95 62c-63 0 -92 -27 -113 -46c-15 -13 -39 -15 -54 1c-14 15 -11 39 3 54c40 41 91 65 164 65c105 0 170 -44 170 -160v-249h39
c19 0 39 -13 39 -37c0 -23 -16 -37 -39 -37h-62zM342 157v111l-163 -67c-26 -11 -59 -31 -59 -78c0 -41 43 -53 66 -53c61 0 107 29 156 87zM378 577l-108 57l-108 -57c-16 -9 -33 -9 -46 5l-9 9c-16 18 -5 36 8 46l124 89c12 8 22 11 31 11c10 0 20 -3 31 -11l122 -89
c13 -10 25 -25 10 -44l-10 -11c-12 -15 -30 -14 -45 -5z" />
    <glyph glyph-name="adieresis" unicode="&#xe4;" horiz-adv-x="515" 
d="M393 0c-37 0 -51 18 -51 50c-40 -33 -84 -55 -156 -55c-63 0 -141 37 -141 128c0 88 61 129 118 152l178 72c-5 46 -40 62 -95 62c-63 0 -92 -27 -113 -46c-15 -13 -39 -15 -54 1c-14 15 -11 39 3 54c40 41 91 65 164 65c105 0 170 -44 170 -160v-249h39
c19 0 39 -13 39 -37c0 -23 -16 -37 -39 -37h-62zM342 157v111l-163 -67c-26 -11 -59 -31 -59 -78c0 -41 43 -53 66 -53c61 0 107 29 156 87zM355 583h-3c-41 0 -65 35 -65 72c0 32 24 68 65 68h3c41 0 65 -36 65 -73c0 -32 -24 -67 -65 -67zM161 583h-3c-41 0 -65 35 -65 72
c0 32 24 68 65 68h3c41 0 65 -36 65 -73c0 -32 -24 -67 -65 -67z" />
    <glyph glyph-name="atilde" unicode="&#xe3;" horiz-adv-x="515" 
d="M393 0c-37 0 -51 18 -51 50c-40 -33 -84 -55 -156 -55c-63 0 -141 37 -141 128c0 88 61 129 118 152l178 72c-5 46 -40 62 -95 62c-63 0 -92 -27 -113 -46c-15 -13 -39 -15 -54 1c-14 15 -11 39 3 54c40 41 91 65 164 65c105 0 170 -44 170 -160v-249h39
c19 0 39 -13 39 -37c0 -23 -16 -37 -39 -37h-62zM342 157v111l-163 -67c-26 -11 -59 -31 -59 -78c0 -41 43 -53 66 -53c61 0 107 29 156 87zM404 634l-1 -1c-23 -29 -57 -43 -93 -43c-29 0 -53 9 -75 19l-6 2c-15 7 -33 13 -48 13c-2 0 -7 -4 -10 -6
c-12 -16 -38 -29 -61 -16h1c-23 12 -22 50 -12 67c18 26 42 41 85 41c31 0 55 -9 78 -19c16 -7 33 -15 50 -15c10 0 16 5 23 13c16 16 47 15 60 6c14 -13 24 -41 9 -61z" />
    <glyph glyph-name="aring" unicode="&#xe5;" horiz-adv-x="515" 
d="M393 0c-37 0 -51 18 -51 50c-40 -33 -84 -55 -156 -55c-63 0 -141 37 -141 128c0 88 61 129 118 152l178 72c-5 46 -40 62 -95 62c-63 0 -92 -27 -113 -46c-15 -13 -39 -15 -54 1c-14 15 -11 39 3 54c40 41 91 65 164 65c105 0 170 -44 170 -160v-249h39
c19 0 39 -13 39 -37c0 -23 -16 -37 -39 -37h-62zM342 157v111l-163 -67c-26 -11 -59 -31 -59 -78c0 -41 43 -53 66 -53c61 0 107 29 156 87zM175 659c0 54 43 97 97 97c55 0 98 -43 98 -97s-43 -97 -98 -97c-54 0 -97 43 -97 97zM244 659c0 -21 8 -28 28 -28s29 7 29 28
c0 20 -9 27 -29 27s-28 -7 -28 -27z" />
    <glyph glyph-name="ccedilla" unicode="&#xe7;" horiz-adv-x="522" 
d="M387 292v61c-25 29 -63 56 -110 56c-82 0 -143 -74 -143 -168c0 -140 94 -171 139 -171c55 0 112 27 151 61c20 17 41 11 53 -1c13 -12 23 -35 -6 -57c-48 -36 -110 -78 -198 -78c-95 0 -213 70 -213 246c0 122 75 242 217 242c37 0 76 -11 110 -33c3 21 17 33 38 33
c25 0 37 -14 37 -41v-148c0 -29 -12 -43 -38 -43c-25 0 -37 15 -37 41zM294 6v-49c66 -6 116 -34 116 -89c0 -75 -65 -93 -123 -93c-37 0 -81 5 -106 23v-1c-15 10 -20 34 -10 49c8 10 27 19 46 10c12 -6 38 -12 70 -12c23 0 54 5 54 24c0 13 -26 20 -70 20
c-37 0 -49 12 -49 49v69h72z" />
    <glyph glyph-name="eacute" unicode="&#xe9;" horiz-adv-x="542" 
d="M425 212h-289c13 -113 88 -142 146 -142c45 0 102 23 144 61c15 14 41 10 52 -2c15 -17 13 -39 -7 -56c-43 -36 -110 -78 -189 -78c-122 0 -222 81 -222 252c0 115 70 236 217 236c93 0 194 -54 194 -219v-4c0 -34 -14 -48 -46 -48zM277 409c-77 0 -127 -49 -140 -123
h259c-6 89 -53 123 -119 123zM445 660l-174 -100c-16 -9 -36 -9 -48 8l-5 8c-10 20 -5 38 7 48l157 125c29 23 56 11 70 -10l13 -19c13 -19 2 -47 -20 -60z" />
    <glyph glyph-name="egrave" unicode="&#xe8;" horiz-adv-x="542" 
d="M425 212h-289c13 -113 88 -142 146 -142c45 0 102 23 144 61c15 14 41 10 52 -2c15 -17 13 -39 -7 -56c-43 -36 -110 -78 -189 -78c-122 0 -222 81 -222 252c0 115 70 236 217 236c93 0 194 -54 194 -219v-4c0 -34 -14 -48 -46 -48zM277 409c-77 0 -127 -49 -140 -123
h259c-6 89 -53 123 -119 123zM278 563l-174 100c-22 13 -33 41 -20 60l13 19c14 21 41 33 70 10l157 -125c12 -10 17 -28 7 -48l-5 -8c-12 -17 -32 -17 -48 -8z" />
    <glyph glyph-name="ecircumflex" unicode="&#xea;" horiz-adv-x="542" 
d="M425 212h-289c13 -113 88 -142 146 -142c45 0 102 23 144 61c15 14 41 10 52 -2c15 -17 13 -39 -7 -56c-43 -36 -110 -78 -189 -78c-122 0 -222 81 -222 252c0 115 70 236 217 236c93 0 194 -54 194 -219v-4c0 -34 -14 -48 -46 -48zM277 409c-77 0 -127 -49 -140 -123
h259c-6 89 -53 123 -119 123zM387 587l-108 57l-108 -57c-16 -9 -33 -9 -46 5l-9 9c-16 18 -5 36 8 46l124 89c12 8 22 11 31 11c10 0 20 -3 31 -11l122 -89c13 -10 25 -25 10 -44l-10 -11c-12 -15 -30 -14 -45 -5z" />
    <glyph glyph-name="edieresis" unicode="&#xeb;" horiz-adv-x="542" 
d="M425 212h-289c13 -113 88 -142 146 -142c45 0 102 23 144 61c15 14 41 10 52 -2c15 -17 13 -39 -7 -56c-43 -36 -110 -78 -189 -78c-122 0 -222 81 -222 252c0 115 70 236 217 236c93 0 194 -54 194 -219v-4c0 -34 -14 -48 -46 -48zM277 409c-77 0 -127 -49 -140 -123
h259c-6 89 -53 123 -119 123zM375 583h-3c-41 0 -65 35 -65 72c0 32 24 68 65 68h3c41 0 65 -36 65 -73c0 -32 -24 -67 -65 -67zM181 583h-3c-41 0 -65 35 -65 72c0 32 24 68 65 68h3c41 0 65 -36 65 -73c0 -32 -24 -67 -65 -67z" />
    <glyph glyph-name="iacute" unicode="&#xed;" horiz-adv-x="442" 
d="M222 74v323l-96 -35c-19 -7 -41 2 -47 22c-7 18 4 41 23 48l131 48c29 10 63 0 63 -42v-364h99c25 0 37 -13 37 -37c0 -23 -12 -37 -37 -37h-275c-24 0 -38 16 -38 37c0 24 14 37 38 37h102zM414 659l-174 -100c-16 -9 -36 -9 -48 8l-5 8c-10 20 -5 38 7 48l157 125
c29 23 56 11 70 -10l13 -19c13 -19 2 -47 -20 -60z" />
    <glyph glyph-name="igrave" unicode="&#xec;" horiz-adv-x="442" 
d="M234 74v323l-96 -35c-19 -7 -41 2 -47 22c-7 18 4 41 23 48l131 48c29 10 63 0 63 -42v-364h99c25 0 37 -13 37 -37c0 -23 -12 -37 -37 -37h-275c-24 0 -38 16 -38 37c0 24 14 37 38 37h102zM278 563l-174 100c-22 13 -33 41 -20 60l13 19c14 21 41 33 70 10l157 -125
c12 -10 17 -28 7 -48l-5 -8c-12 -17 -32 -17 -48 -8z" />
    <glyph glyph-name="icircumflex" unicode="&#xee;" horiz-adv-x="442" 
d="M222 74v323l-96 -35c-19 -7 -41 2 -47 22c-7 18 4 41 23 48l131 48c29 10 63 0 63 -42v-364h99c25 0 37 -13 37 -37c0 -23 -12 -37 -37 -37h-275c-24 0 -38 16 -38 37c0 24 14 37 38 37h102zM351 587l-108 57l-108 -57c-16 -9 -33 -9 -46 5l-9 9c-16 18 -5 36 8 46
l124 89c12 8 22 11 31 11c10 0 20 -3 31 -11l122 -89c13 -10 25 -25 10 -44l-10 -11c-12 -15 -30 -14 -45 -5z" />
    <glyph glyph-name="idieresis" unicode="&#xef;" horiz-adv-x="442" 
d="M210 74v323l-96 -35c-19 -7 -41 2 -47 22c-7 18 4 41 23 48l131 48c29 10 63 0 63 -42v-364h99c25 0 37 -13 37 -37c0 -23 -12 -37 -37 -37h-275c-24 0 -38 16 -38 37c0 24 14 37 38 37h102zM338 583h-3c-41 0 -65 35 -65 72c0 32 24 68 65 68h3c41 0 65 -36 65 -73
c0 -32 -24 -67 -65 -67zM144 583h-3c-41 0 -65 35 -65 72c0 32 24 68 65 68h3c41 0 65 -36 65 -73c0 -32 -24 -67 -65 -67z" />
    <glyph glyph-name="ntilde" unicode="&#xf1;" horiz-adv-x="636" 
d="M223 438v-56c81 77 132 101 182 101c70 0 101 -49 101 -124v-285h37c23 0 40 -16 40 -37s-13 -37 -39 -37h-146c-22 0 -39 16 -39 37s13 37 39 37h34v297c0 30 -9 42 -27 42c-31 0 -74 -15 -182 -129v-210h26c22 0 40 -16 40 -37s-13 -37 -39 -37h-137
c-22 0 -39 16 -39 37s12 37 39 37h36v323l-52 -17c-19 -8 -41 2 -47 21c-7 19 4 41 23 48l88 31c29 10 62 -1 62 -42zM481 634l-1 -1c-23 -29 -57 -43 -93 -43c-29 0 -53 9 -75 19l-6 2c-15 7 -33 13 -48 13c-2 0 -7 -4 -10 -6c-12 -16 -38 -29 -61 -16h1
c-23 12 -22 50 -12 67c18 26 42 41 85 41c31 0 55 -9 78 -19c16 -7 33 -15 50 -15c10 0 16 5 23 13c16 16 47 15 60 6c14 -13 24 -41 9 -61z" />
    <glyph glyph-name="oacute" unicode="&#xf3;" horiz-adv-x="548" 
d="M277 -5c-138 0 -217 107 -217 246c0 143 97 242 217 242c119 0 216 -99 216 -242c0 -139 -79 -246 -216 -246zM277 70c89 0 142 75 142 171c0 97 -64 168 -142 168s-143 -71 -143 -168c0 -96 53 -171 143 -171zM443 673l-174 -100c-16 -9 -36 -9 -48 8l-5 8
c-10 20 -5 38 7 48l157 125c29 23 56 11 70 -10l13 -19c13 -19 2 -47 -20 -60z" />
    <glyph glyph-name="ograve" unicode="&#xf2;" horiz-adv-x="548" 
d="M277 -5c-138 0 -217 107 -217 246c0 143 97 242 217 242c119 0 216 -99 216 -242c0 -139 -79 -246 -216 -246zM277 70c89 0 142 75 142 171c0 97 -64 168 -142 168s-143 -71 -143 -168c0 -96 53 -171 143 -171zM286 583l-174 100c-22 13 -33 41 -20 60l13 19
c14 21 41 33 70 10l157 -125c12 -10 17 -28 7 -48l-5 -8c-12 -17 -32 -17 -48 -8z" />
    <glyph glyph-name="ocircumflex" unicode="&#xf4;" horiz-adv-x="548" 
d="M277 -5c-138 0 -217 107 -217 246c0 143 97 242 217 242c119 0 216 -99 216 -242c0 -139 -79 -246 -216 -246zM277 70c89 0 142 75 142 171c0 97 -64 168 -142 168s-143 -71 -143 -168c0 -96 53 -171 143 -171zM384 558l-108 57l-108 -57c-16 -9 -33 -9 -46 5l-9 9
c-16 18 -5 36 8 46l124 89c12 8 22 11 31 11c10 0 20 -3 31 -11l122 -89c13 -10 25 -25 10 -44l-10 -11c-12 -15 -30 -14 -45 -5z" />
    <glyph glyph-name="odieresis" unicode="&#xf6;" horiz-adv-x="548" 
d="M277 -5c-138 0 -217 107 -217 246c0 143 97 242 217 242c119 0 216 -99 216 -242c0 -139 -79 -246 -216 -246zM277 70c89 0 142 75 142 171c0 97 -64 168 -142 168s-143 -71 -143 -168c0 -96 53 -171 143 -171zM385 584h-3c-41 0 -65 35 -65 72c0 32 24 68 65 68h3
c41 0 65 -36 65 -73c0 -32 -24 -67 -65 -67zM191 584h-3c-41 0 -65 35 -65 72c0 32 24 68 65 68h3c41 0 65 -36 65 -73c0 -32 -24 -67 -65 -67z" />
    <glyph glyph-name="otilde" unicode="&#xf5;" horiz-adv-x="548" 
d="M277 -5c-138 0 -217 107 -217 246c0 143 97 242 217 242c119 0 216 -99 216 -242c0 -139 -79 -246 -216 -246zM277 70c89 0 142 75 142 171c0 97 -64 168 -142 168s-143 -71 -143 -168c0 -96 53 -171 143 -171zM436 631l-1 -1c-23 -29 -57 -43 -93 -43
c-29 0 -53 9 -75 19l-6 2c-15 7 -33 13 -48 13c-2 0 -7 -4 -10 -6c-12 -16 -38 -29 -61 -16h1c-23 12 -22 50 -12 67c18 26 42 41 85 41c31 0 55 -9 78 -19c16 -7 33 -15 50 -15c10 0 16 5 23 13c16 16 47 15 60 6c14 -13 24 -41 9 -61z" />
    <glyph glyph-name="uacute" unicode="&#xfa;" horiz-adv-x="630" 
d="M489 74h39c19 0 39 -13 39 -37c0 -23 -15 -37 -39 -37h-61c-38 0 -52 18 -52 52v44c-84 -84 -126 -101 -176 -101c-66 0 -98 55 -98 106v296l-45 -15c-20 -7 -41 1 -47 21c-6 18 3 41 22 48l82 29c29 10 63 -1 63 -42v-333c0 -24 10 -35 26 -35c35 0 62 4 173 127v249
c0 21 14 37 36 37c20 0 38 -16 38 -37v-372zM500 673l-174 -100c-16 -9 -36 -9 -48 8l-5 8c-10 20 -5 38 7 48l157 125c29 23 56 11 70 -10l13 -19c13 -19 2 -47 -20 -60z" />
    <glyph glyph-name="ugrave" unicode="&#xf9;" horiz-adv-x="630" 
d="M489 74h39c19 0 39 -13 39 -37c0 -23 -15 -37 -39 -37h-61c-38 0 -52 18 -52 52v44c-84 -84 -126 -101 -176 -101c-66 0 -98 55 -98 106v296l-45 -15c-20 -7 -41 1 -47 21c-6 18 3 41 22 48l82 29c29 10 63 -1 63 -42v-333c0 -24 10 -35 26 -35c35 0 62 4 173 127v249
c0 21 14 37 36 37c20 0 38 -16 38 -37v-372zM296 563l-174 100c-22 13 -33 41 -20 60l13 19c14 21 41 33 70 10l157 -125c12 -10 17 -28 7 -48l-5 -8c-12 -17 -32 -17 -48 -8z" />
    <glyph glyph-name="ucircumflex" unicode="&#xfb;" horiz-adv-x="630" 
d="M489 74h39c19 0 39 -13 39 -37c0 -23 -15 -37 -39 -37h-61c-38 0 -52 18 -52 52v44c-84 -84 -126 -101 -176 -101c-66 0 -98 55 -98 106v296l-45 -15c-20 -7 -41 1 -47 21c-6 18 3 41 22 48l82 29c29 10 63 -1 63 -42v-333c0 -24 10 -35 26 -35c35 0 62 4 173 127v249
c0 21 14 37 36 37c20 0 38 -16 38 -37v-372zM412 587l-108 57l-108 -57c-16 -9 -33 -9 -46 5l-9 9c-16 18 -5 36 8 46l124 89c12 8 22 11 31 11c10 0 20 -3 31 -11l122 -89c13 -10 25 -25 10 -44l-10 -11c-12 -15 -30 -14 -45 -5z" />
    <glyph glyph-name="udieresis" unicode="&#xfc;" horiz-adv-x="630" 
d="M489 74h39c19 0 39 -13 39 -37c0 -23 -15 -37 -39 -37h-61c-38 0 -52 18 -52 52v44c-84 -84 -126 -101 -176 -101c-66 0 -98 55 -98 106v296l-45 -15c-20 -7 -41 1 -47 21c-6 18 3 41 22 48l82 29c29 10 63 -1 63 -42v-333c0 -24 10 -35 26 -35c35 0 62 4 173 127v249
c0 21 14 37 36 37c20 0 38 -16 38 -37v-372zM418 583h-3c-41 0 -65 35 -65 72c0 32 24 68 65 68h3c41 0 65 -36 65 -73c0 -32 -24 -67 -65 -67zM224 583h-3c-41 0 -65 35 -65 72c0 32 24 68 65 68h3c41 0 65 -36 65 -73c0 -32 -24 -67 -65 -67z" />
    <glyph glyph-name="Agrave" unicode="&#xc0;" horiz-adv-x="582" 
d="M406 169h-208l-37 -135c-8 -28 -23 -34 -42 -34c-29 0 -42 21 -35 46l161 573c5 18 20 34 41 34h32c21 0 37 -16 42 -34l161 -573c9 -31 -14 -46 -37 -46c-18 0 -34 7 -41 33zM221 245h163l-82 306zM287 739l-174 100c-22 13 -33 41 -20 60l13 19c14 21 41 33 70 10
l157 -125c12 -10 17 -28 7 -48l-5 -8c-12 -17 -32 -17 -48 -8z" />
    <glyph glyph-name="Atilde" unicode="&#xc3;" horiz-adv-x="582" 
d="M406 169h-208l-37 -135c-8 -28 -23 -34 -42 -34c-29 0 -42 21 -35 46l161 573c5 18 20 34 41 34h32c21 0 37 -16 42 -34l161 -573c9 -31 -14 -46 -37 -46c-18 0 -34 7 -41 33zM221 245h163l-82 306zM456 786l-1 -1c-23 -29 -57 -43 -93 -43c-29 0 -53 9 -75 19l-6 2
c-15 7 -33 13 -48 13c-2 0 -7 -4 -10 -6c-12 -16 -38 -29 -61 -16h1c-23 12 -22 50 -12 67c18 26 42 41 85 41c31 0 55 -9 78 -19c16 -7 33 -15 50 -15c10 0 16 5 23 13c16 16 47 15 60 6c14 -13 24 -41 9 -61z" />
    <glyph glyph-name="Otilde" unicode="&#xd5;" horiz-adv-x="593" 
d="M60 328c0 197 98 329 241 329c142 0 245 -132 245 -329s-88 -333 -245 -333c-198 0 -241 202 -241 333zM139 328c0 -151 55 -256 162 -256c108 0 165 105 165 256c0 148 -66 253 -165 253c-98 0 -162 -105 -162 -253zM457 786l-1 -1c-23 -29 -57 -43 -93 -43
c-29 0 -53 9 -75 19l-6 2c-15 7 -33 13 -48 13c-2 0 -7 -4 -10 -6c-12 -16 -38 -29 -61 -16h1c-23 12 -22 50 -12 67c18 26 42 41 85 41c31 0 55 -9 78 -19c16 -7 33 -15 50 -15c10 0 16 5 23 13c16 16 47 15 60 6c14 -13 24 -41 9 -61z" />
    <glyph glyph-name="ydieresis" unicode="&#xff;" horiz-adv-x="604" 
d="M218 409h-29l108 -286l98 286h-26c-27 0 -38 13 -38 37c0 21 13 37 38 37h167c21 0 36 -19 36 -37c0 -19 -15 -37 -36 -37h-61l-189 -546h43c25 0 39 -16 39 -37c0 -24 -12 -37 -39 -37h-176c-21 0 -36 18 -36 37c0 18 15 37 36 37h53l54 152l-149 394h-59
c-22 0 -37 18 -37 37c0 18 15 37 37 37h166c25 0 39 -16 39 -37c0 -24 -11 -37 -39 -37zM397 601h-3c-41 0 -65 35 -65 72c0 32 24 68 65 68h3c41 0 65 -36 65 -73c0 -32 -24 -67 -65 -67zM203 601h-3c-41 0 -65 35 -65 72c0 32 24 68 65 68h3c41 0 65 -36 65 -73
c0 -32 -24 -67 -65 -67z" />
    <glyph glyph-name="Ydieresis" unicode="&#x178;" horiz-adv-x="498" 
d="M450 602l-149 -295v-269c0 -26 -14 -38 -38 -38s-38 12 -38 38v269l-146 293c-12 25 2 49 25 53c21 4 37 -6 46 -25l113 -235l115 235c10 20 24 29 46 25c25 -5 35 -27 26 -51zM363 748h-3c-41 0 -65 35 -65 72c0 32 24 68 65 68h3c41 0 65 -36 65 -73
c0 -32 -24 -67 -65 -67zM169 748h-3c-41 0 -65 35 -65 72c0 32 24 68 65 68h3c41 0 65 -36 65 -73c0 -32 -24 -67 -65 -67z" />
    <glyph glyph-name="Acircumflex" unicode="&#xc2;" horiz-adv-x="582" 
d="M406 169h-208l-37 -135c-8 -28 -23 -34 -42 -34c-29 0 -42 21 -35 46l161 573c5 18 20 34 41 34h32c21 0 37 -16 42 -34l161 -573c9 -31 -14 -46 -37 -46c-18 0 -34 7 -41 33zM221 245h163l-82 306zM412 747l-108 57l-108 -57c-16 -9 -33 -9 -46 5l-9 9
c-16 18 -5 36 8 46l124 89c12 8 22 11 31 11c10 0 20 -3 31 -11l122 -89c13 -10 25 -25 10 -44l-10 -11c-12 -15 -30 -14 -45 -5z" />
    <glyph glyph-name="Ecircumflex" unicode="&#xca;" horiz-adv-x="537" 
d="M176 300v-224h282c26 0 38 -14 38 -38s-12 -38 -38 -38h-314c-28 0 -44 12 -44 43v567c0 31 16 43 44 43h314c26 0 38 -14 38 -38s-12 -38 -38 -38h-282v-201h213c26 0 38 -14 38 -38s-12 -38 -38 -38h-213zM413 746l-108 57l-108 -57c-16 -9 -33 -9 -46 5l-9 9
c-16 18 -5 36 8 46l124 89c12 8 22 11 31 11c10 0 20 -3 31 -11l122 -89c13 -10 25 -25 10 -44l-10 -11c-12 -15 -30 -14 -45 -5z" />
    <glyph glyph-name="Aacute" unicode="&#xc1;" horiz-adv-x="582" 
d="M406 169h-208l-37 -135c-8 -28 -23 -34 -42 -34c-29 0 -42 21 -35 46l161 573c5 18 20 34 41 34h32c21 0 37 -16 42 -34l161 -573c9 -31 -14 -46 -37 -46c-18 0 -34 7 -41 33zM221 245h163l-82 306zM473 841l-174 -100c-16 -9 -36 -9 -48 8l-5 8c-10 20 -5 38 7 48
l157 125c29 23 56 11 70 -10l13 -19c13 -19 2 -47 -20 -60z" />
    <glyph glyph-name="Edieresis" unicode="&#xcb;" horiz-adv-x="537" 
d="M176 300v-224h282c26 0 38 -14 38 -38s-12 -38 -38 -38h-314c-28 0 -44 12 -44 43v567c0 31 16 43 44 43h314c26 0 38 -14 38 -38s-12 -38 -38 -38h-282v-201h213c26 0 38 -14 38 -38s-12 -38 -38 -38h-213zM397 751h-3c-41 0 -65 35 -65 72c0 32 24 68 65 68h3
c41 0 65 -36 65 -73c0 -32 -24 -67 -65 -67zM203 751h-3c-41 0 -65 35 -65 72c0 32 24 68 65 68h3c41 0 65 -36 65 -73c0 -32 -24 -67 -65 -67z" />
    <glyph glyph-name="Egrave" unicode="&#xc8;" horiz-adv-x="537" 
d="M176 300v-224h282c26 0 38 -14 38 -38s-12 -38 -38 -38h-314c-28 0 -44 12 -44 43v567c0 31 16 43 44 43h314c26 0 38 -14 38 -38s-12 -38 -38 -38h-282v-201h213c26 0 38 -14 38 -38s-12 -38 -38 -38h-213zM281 742l-174 100c-22 13 -33 41 -20 60l13 19
c14 21 41 33 70 10l157 -125c12 -10 17 -28 7 -48l-5 -8c-12 -17 -32 -17 -48 -8z" />
    <glyph glyph-name="Iacute" unicode="&#xcd;" horiz-adv-x="466" 
d="M411 616c0 -25 -14 -39 -39 -39h-90v-501h84c27 0 42 -14 42 -39s-15 -37 -42 -37h-241c-30 0 -44 12 -44 38s15 38 42 38h83v501h-84c-27 0 -42 14 -42 39c0 27 13 37 41 37h250c24 0 40 -10 40 -37zM428 844l-174 -100c-16 -9 -36 -9 -48 8l-5 8c-10 20 -5 38 7 48
l157 125c29 23 56 11 70 -10l13 -19c13 -19 2 -47 -20 -60z" />
    <glyph glyph-name="Icircumflex" unicode="&#xce;" horiz-adv-x="466" 
d="M400 616c0 -25 -14 -39 -39 -39h-90v-501h84c27 0 42 -14 42 -39s-15 -37 -42 -37h-241c-30 0 -44 12 -44 38s15 38 42 38h83v501h-84c-27 0 -42 14 -42 39c0 27 13 37 41 37h250c24 0 40 -10 40 -37zM338 757l-108 57l-108 -57c-16 -9 -33 -9 -46 5l-9 9
c-16 18 -5 36 8 46l124 89c12 8 22 11 31 11c10 0 20 -3 31 -11l122 -89c13 -10 25 -25 10 -44l-10 -11c-12 -15 -30 -14 -45 -5z" />
    <glyph glyph-name="Idieresis" unicode="&#xcf;" horiz-adv-x="466" 
d="M407 616c0 -25 -14 -39 -39 -39h-90v-501h84c27 0 42 -14 42 -39s-15 -37 -42 -37h-241c-30 0 -44 12 -44 38s15 38 42 38h83v501h-84c-27 0 -42 14 -42 39c0 27 13 37 41 37h250c24 0 40 -10 40 -37zM346 749h-3c-41 0 -65 35 -65 72c0 32 24 68 65 68h3
c41 0 65 -36 65 -73c0 -32 -24 -67 -65 -67zM152 749h-3c-41 0 -65 35 -65 72c0 32 24 68 65 68h3c41 0 65 -36 65 -73c0 -32 -24 -67 -65 -67z" />
    <glyph glyph-name="Igrave" unicode="&#xcc;" horiz-adv-x="466" 
d="M411 616c0 -25 -14 -39 -39 -39h-90v-501h84c27 0 42 -14 42 -39s-15 -37 -42 -37h-241c-30 0 -44 12 -44 38s15 38 42 38h83v501h-84c-27 0 -42 14 -42 39c0 27 13 37 41 37h250c24 0 40 -10 40 -37zM252 742l-174 100c-22 13 -33 41 -20 60l13 19c14 21 41 33 70 10
l157 -125c12 -10 17 -28 7 -48l-5 -8c-12 -17 -32 -17 -48 -8z" />
    <glyph glyph-name="Oacute" unicode="&#xd3;" horiz-adv-x="593" 
d="M60 328c0 197 98 329 241 329c142 0 245 -132 245 -329s-88 -333 -245 -333c-198 0 -241 202 -241 333zM139 328c0 -151 55 -256 162 -256c108 0 165 105 165 256c0 148 -66 253 -165 253c-98 0 -162 -105 -162 -253zM475 839l-174 -100c-16 -9 -36 -9 -48 8l-5 8
c-10 20 -5 38 7 48l157 125c29 23 56 11 70 -10l13 -19c13 -19 2 -47 -20 -60z" />
    <glyph glyph-name="Ocircumflex" unicode="&#xd4;" horiz-adv-x="593" 
d="M60 328c0 197 98 329 241 329c142 0 245 -132 245 -329s-88 -333 -245 -333c-198 0 -241 202 -241 333zM139 328c0 -151 55 -256 162 -256c108 0 165 105 165 256c0 148 -66 253 -165 253c-98 0 -162 -105 -162 -253zM416 757l-108 57l-108 -57c-16 -9 -33 -9 -46 5l-9 9
c-16 18 -5 36 8 46l124 89c12 8 22 11 31 11c10 0 20 -3 31 -11l122 -89c13 -10 25 -25 10 -44l-10 -11c-12 -15 -30 -14 -45 -5z" />
    <glyph glyph-name="Ograve" unicode="&#xd2;" horiz-adv-x="593" 
d="M60 328c0 197 98 329 241 329c142 0 245 -132 245 -329s-88 -333 -245 -333c-198 0 -241 202 -241 333zM139 328c0 -151 55 -256 162 -256c108 0 165 105 165 256c0 148 -66 253 -165 253c-98 0 -162 -105 -162 -253zM321 740l-174 100c-22 13 -33 41 -20 60l13 19
c14 21 41 33 70 10l157 -125c12 -10 17 -28 7 -48l-5 -8c-12 -17 -32 -17 -48 -8z" />
    <glyph glyph-name="Uacute" unicode="&#xda;" 
d="M506 615v-424c0 -51 -19 -114 -57 -150c-35 -34 -75 -46 -127 -46c-54 0 -94 12 -129 46c-38 36 -57 99 -57 150v424c0 26 14 38 38 38c25 0 39 -12 39 -38v-415c0 -46 12 -85 35 -106c18 -17 42 -22 73 -22c32 0 55 5 74 22c23 21 35 60 35 106v415c0 26 14 38 38 38
s38 -12 38 -38zM507 843l-174 -100c-16 -9 -36 -9 -48 8l-5 8c-10 20 -5 38 7 48l157 125c29 23 56 11 70 -10l13 -19c13 -19 2 -47 -20 -60z" />
    <glyph glyph-name="Ucircumflex" unicode="&#xdb;" 
d="M506 615v-424c0 -51 -19 -114 -57 -150c-35 -34 -75 -46 -127 -46c-54 0 -94 12 -129 46c-38 36 -57 99 -57 150v424c0 26 14 38 38 38c25 0 39 -12 39 -38v-415c0 -46 12 -85 35 -106c18 -17 42 -22 73 -22c32 0 55 5 74 22c23 21 35 60 35 106v415c0 26 14 38 38 38
s38 -12 38 -38zM431 756l-108 57l-108 -57c-16 -9 -33 -9 -46 5l-9 9c-16 18 -5 36 8 46l124 89c12 8 22 11 31 11c10 0 20 -3 31 -11l122 -89c13 -10 25 -25 10 -44l-10 -11c-12 -15 -30 -14 -45 -5z" />
    <glyph glyph-name="Ugrave" unicode="&#xd9;" 
d="M506 615v-424c0 -51 -19 -114 -57 -150c-35 -34 -75 -46 -127 -46c-54 0 -94 12 -129 46c-38 36 -57 99 -57 150v424c0 26 14 38 38 38c25 0 39 -12 39 -38v-415c0 -46 12 -85 35 -106c18 -17 42 -22 73 -22c32 0 55 5 74 22c23 21 35 60 35 106v415c0 26 14 38 38 38
s38 -12 38 -38zM309 744l-174 100c-22 13 -33 41 -20 60l13 19c14 21 41 33 70 10l157 -125c12 -10 17 -28 7 -48l-5 -8c-12 -17 -32 -17 -48 -8z" />
    <glyph glyph-name="onehalf" unicode="&#xbd;" horiz-adv-x="585" 
d="M227 357h-105c-20 0 -32 5 -32 24s12 26 32 26h26v154c-11 -12 -32 -26 -40 -27c-11 -2 -23 -3 -31 12c-9 17 -2 30 21 43c16 9 28 20 40 31c16 15 23 23 40 23c13 0 24 -9 24 -25v-211h25c19 0 31 -7 31 -26s-12 -24 -31 -24zM463 209c0 18 -10 26 -32 26
c-17 0 -29 -13 -35 -35c-4 -14 -20 -16 -31 -12c-19 7 -15 31 -12 40c14 39 47 60 77 60c64 0 91 -37 91 -82c0 -32 -32 -60 -62 -85c-20 -18 -49 -39 -56 -70h69v17c0 17 13 26 24 26c14 0 28 -8 28 -26v-37c0 -18 -12 -30 -30 -30h-119c-22 0 -31 13 -31 32v14
c0 33 30 70 76 110c22 19 43 39 43 52zM528 589l-370 -577c-9 -14 -29 -16 -44 -6c-15 9 -19 27 -8 45l366 571c12 18 33 22 48 13s19 -26 8 -46z" />
    <glyph glyph-name="onequarter" unicode="&#xbc;" horiz-adv-x="610" 
d="M528 589l-370 -577c-9 -14 -29 -16 -44 -6c-15 9 -19 27 -8 45l366 571c12 18 33 22 48 13s19 -26 8 -46zM545 108c0 -25 -12 -28 -31 -28h-22v-30h11c20 0 32 -3 32 -25c0 -19 -14 -25 -31 -25h-83c-19 0 -31 6 -31 25c0 22 12 25 31 25h19v30h-70c-23 0 -31 14 -31 32
v9c0 8 4 15 7 20l80 127c8 12 14 16 28 16h8c25 0 30 -12 30 -32v-120h22c19 0 31 -5 31 -24zM440 203l-41 -71h41v71zM227 357h-105c-20 0 -32 5 -32 24s12 26 32 26h26v154c-11 -12 -32 -26 -40 -27c-11 -2 -23 -3 -31 12c-9 17 -2 30 21 43c16 9 28 20 40 31
c16 15 23 23 40 23c13 0 24 -9 24 -25v-211h25c19 0 31 -7 31 -26s-12 -24 -31 -24z" />
    <glyph glyph-name="onesuperior" unicode="&#xb9;" horiz-adv-x="301" 
d="M227 357h-105c-20 0 -32 5 -32 24s12 26 32 26h26v154c-11 -12 -32 -26 -40 -27c-11 -2 -23 -3 -31 12c-9 17 -2 30 21 43c16 9 28 20 40 31c16 15 23 23 40 23c13 0 24 -9 24 -25v-211h25c19 0 31 -7 31 -26s-12 -24 -31 -24z" />
    <glyph glyph-name="threequarters" unicode="&#xbe;" horiz-adv-x="604" 
d="M77 407c-8 21 -1 31 10 36c12 5 27 2 34 -13c4 -7 16 -19 37 -19c29 0 47 19 47 46c0 18 -10 39 -40 47c-16 4 -28 16 -13 42l33 46h-51l-12 -20c-4 -7 -16 -14 -31 -9c-13 4 -18 21 -11 36l15 30c5 11 16 14 24 14h93c16 0 28 -7 28 -24v-21c0 -4 -3 -14 -6 -18l-28 -39
c46 -23 51 -56 51 -84c0 -49 -37 -96 -99 -96c-31 0 -69 14 -81 46zM545 108c0 -25 -12 -28 -31 -28h-22v-30h11c20 0 32 -3 32 -25c0 -19 -14 -25 -31 -25h-83c-19 0 -31 6 -31 25c0 22 12 25 31 25h19v30h-70c-23 0 -31 14 -31 32v9c0 8 4 15 7 20l80 127
c8 12 14 16 28 16h8c25 0 30 -12 30 -32v-120h22c19 0 31 -5 31 -24zM440 203l-41 -71h41v71zM523 589l-370 -577c-9 -14 -29 -16 -44 -6c-15 9 -19 27 -8 45l366 571c12 18 33 22 48 13s19 -26 8 -46z" />
    <glyph glyph-name="threesuperior" unicode="&#xb3;" horiz-adv-x="304" 
d="M87 407c-8 21 -1 31 10 36c12 5 27 2 34 -13c4 -7 16 -19 37 -19c29 0 47 19 47 46c0 18 -10 39 -40 47c-16 4 -28 16 -13 42l33 46h-51l-12 -20c-4 -7 -16 -14 -31 -9c-13 4 -18 21 -11 36l15 30c5 11 16 14 24 14h93c16 0 28 -7 28 -24v-21c0 -4 -3 -14 -6 -18l-28 -39
c46 -23 51 -56 51 -84c0 -49 -37 -96 -99 -96c-31 0 -69 14 -81 46z" />
    <glyph glyph-name="twosuperior" unicode="&#xb2;" horiz-adv-x="294" 
d="M193 565c0 18 -10 26 -32 26c-17 0 -29 -13 -35 -35c-4 -14 -20 -16 -31 -12c-19 7 -15 31 -12 40c14 39 47 60 77 60c64 0 91 -37 91 -82c0 -32 -32 -60 -62 -85c-20 -18 -49 -39 -56 -70h69v17c0 17 13 26 24 26c14 0 28 -8 28 -26v-37c0 -18 -12 -30 -30 -30h-119
c-22 0 -31 13 -31 32v14c0 33 30 70 76 110c22 19 43 39 43 52z" />
    <glyph glyph-name="minus" unicode="&#x2212;" horiz-adv-x="507" 
d="M422 204h-327c-27 0 -45 17 -45 43c0 28 21 44 44 44h328c20 0 42 -16 42 -44c0 -26 -22 -43 -42 -43z" />
    <glyph glyph-name="multiply" unicode="&#xd7;" horiz-adv-x="648" 
d="M118 96l133 133l-133 132c-12 16 -19 44 1 62c21 20 45 17 61 1l134 -133l131 131c20 18 43 20 62 1h-1c21 -19 16 -45 2 -61l-132 -133l129 -131c18 -20 21 -43 2 -63c-18 -21 -45 -16 -62 -1l-131 133l-131 -132c-17 -13 -46 -20 -64 0c-20 21 -14 46 -1 61z" />
    <glyph glyph-name="Scaron" unicode="&#x160;" horiz-adv-x="578" 
d="M434 614c36 -29 60 -72 64 -121c1 -20 -7 -40 -35 -44c-22 -3 -39 10 -42 33c-5 42 -18 60 -35 74c-18 14 -47 25 -84 25c-65 0 -125 -25 -125 -94c0 -59 72 -86 137 -107c117 -37 203 -59 203 -198c0 -132 -84 -187 -214 -187c-72 0 -139 25 -188 98
c-19 28 -27 63 -32 116c-3 29 19 41 38 41s37 -11 38 -37c4 -41 10 -63 22 -80c27 -38 70 -61 122 -61c97 0 138 43 138 110c0 82 -58 99 -140 124c-108 32 -200 75 -200 181c0 120 95 171 201 171c61 0 104 -22 132 -44zM206 877h-1l109 -58l108 58h-1c16 9 32 8 46 -6
l6 -6c17 -17 7 -38 -6 -49l-123 -90c-11 -7 -22 -10 -31 -10c-10 0 -20 4 -31 11l-123 89c-13 11 -22 32 -5 49l6 6c14 14 30 15 46 6z" />
    <glyph glyph-name="scaron" unicode="&#x161;" horiz-adv-x="535" 
d="M265 70c65 0 126 19 126 79c0 37 -62 53 -123 68c-86 21 -180 44 -180 134c0 88 81 132 177 132c42 0 80 -9 109 -24c6 16 18 24 37 24c24 0 36 -14 36 -41v-104c0 -29 -12 -43 -37 -43c-26 0 -37 15 -37 41v33c-23 28 -59 40 -108 40c-60 0 -103 -21 -103 -58
c0 -36 58 -48 119 -63c89 -21 184 -44 184 -139c0 -110 -88 -154 -200 -154c-52 0 -87 12 -113 28c-5 -16 -17 -23 -35 -23c-25 0 -37 14 -37 41v121c0 26 14 41 38 41s36 -15 36 -41v-39c20 -31 48 -53 111 -53zM179 721h-1l109 -58l108 58h-1c16 9 32 8 46 -6l6 -6
c17 -17 7 -38 -6 -49l-123 -90c-11 -7 -22 -10 -31 -10c-10 0 -20 4 -31 11l-123 89c-13 11 -22 32 -5 49l6 6c14 14 30 15 46 6z" />
    <glyph glyph-name="Yacute" unicode="&#xdd;" horiz-adv-x="498" 
d="M450 602l-149 -295v-269c0 -26 -14 -38 -38 -38s-38 12 -38 38v269l-146 293c-12 25 2 49 25 53c21 4 37 -6 46 -25l113 -235l115 235c10 20 24 29 46 25c25 -5 35 -27 26 -51zM449 817l-174 -100c-16 -9 -36 -9 -48 8l-5 8c-10 20 -5 38 7 48l157 125
c29 23 56 11 70 -10l13 -19c13 -19 2 -47 -20 -60z" />
    <glyph glyph-name="yacute" unicode="&#xfd;" horiz-adv-x="604" 
d="M218 409h-29l108 -286l98 286h-26c-27 0 -38 13 -38 37c0 21 13 37 38 37h167c21 0 36 -19 36 -37c0 -19 -15 -37 -36 -37h-61l-189 -546h43c25 0 39 -16 39 -37c0 -24 -12 -37 -39 -37h-176c-21 0 -36 18 -36 37c0 18 15 37 36 37h53l54 152l-149 394h-59
c-22 0 -37 18 -37 37c0 18 15 37 37 37h166c25 0 39 -16 39 -37c0 -24 -11 -37 -39 -37zM473 663l-174 -100c-16 -9 -36 -9 -48 8l-5 8c-10 20 -5 38 7 48l157 125c29 23 56 11 70 -10l13 -19c13 -19 2 -47 -20 -60z" />
    <glyph glyph-name="Zcaron" unicode="&#x17d;" horiz-adv-x="513" 
d="M443 0h-344c-25 0 -39 12 -39 38v27c0 9 4 25 9 33l303 479h-260c-25 0 -37 17 -37 38s14 38 37 38h295c23 0 42 -12 42 -38v-37c0 -14 -3 -21 -8 -29l-300 -473h302c25 0 38 -17 38 -38s-15 -38 -38 -38zM175 877h-1l109 -58l108 58h-1c16 9 32 8 46 -6l6 -6
c17 -17 7 -38 -6 -49l-123 -90c-11 -7 -22 -10 -31 -10c-10 0 -20 4 -31 11l-123 89c-13 11 -22 32 -5 49l6 6c14 14 30 15 46 6z" />
    <glyph glyph-name="zcaron" unicode="&#x17e;" horiz-adv-x="540" 
d="M442 0h-318c-29 0 -56 31 -25 72l258 337h-188l-12 -65c-4 -22 -17 -38 -41 -35c-26 3 -37 19 -33 44l14 82c4 21 8 48 52 48h272c45 0 59 -38 29 -77l-255 -332h224v85c0 26 19 38 38 38c23 0 37 -12 37 -38v-107c0 -21 -10 -52 -52 -52zM179 721h-1l109 -58l108 58h-1
c16 9 32 8 46 -6l6 -6c17 -17 7 -38 -6 -49l-123 -90c-11 -7 -22 -10 -31 -10c-10 0 -20 4 -31 11l-123 89c-13 11 -22 32 -5 49l6 6c14 14 30 15 46 6z" />
    <glyph glyph-name="asterisk" unicode="*" horiz-adv-x="662" 
d="M132 553c0 22 15 29 41 29h121l18 -4l-12 14l-61 101c-10 17 -13 43 8 54c18 9 37 -7 46 -23l60 -104l6 -19l6 19l62 104c11 18 28 31 46 21c22 -12 16 -34 6 -52l-59 -100l-12 -16l21 5h118c29 0 40 -12 40 -33c0 -20 -15 -28 -40 -28h-118l-19 2l12 -17l60 -101
c10 -17 12 -41 -7 -51c-18 -9 -33 1 -45 20l-64 104l-7 20l-6 -20l-63 -104c-11 -18 -25 -29 -47 -20c-23 10 -15 35 -6 51l62 103l15 14l-20 -1h-121c-30 0 -41 13 -41 32z" />
    <glyph glyph-name="ae" unicode="&#xe6;" horiz-adv-x="869" 
d="M560 -5c-69 0 -126 28 -167 91c-40 -52 -104 -91 -192 -91c-63 0 -141 37 -141 128c0 88 61 128 119 152h-1l178 72c-6 47 -40 62 -96 62c-62 0 -91 -27 -112 -46c-16 -13 -65 41 -51 55c45 42 91 65 163 65s126 -22 152 -72c33 43 80 72 152 72c94 0 186 -54 186 -219
v-4c0 -34 0 -48 -46 -48h-272c6 -93 56 -141 128 -142c46 -1 103 30 143 61c16 12 41 9 53 -2c14 -18 14 -39 -7 -56c-45 -33 -110 -78 -189 -78zM357 207v61c-55 -22 -108 -45 -163 -67c-15 -7 -59 -31 -59 -78c0 -41 43 -53 66 -53c89 0 156 57 156 137zM564 409
c-75 0 -120 -49 -130 -123h241c-7 86 -47 123 -111 123z" />
    <glyph glyph-name="ordfeminine" unicode="&#xaa;" horiz-adv-x="423" 
d="M314 265c-25 0 -38 10 -44 28c-28 -20 -59 -32 -107 -32c-49 0 -113 29 -113 103c0 70 48 102 93 121l124 51c-8 20 -29 29 -60 29c-42 0 -62 -19 -76 -31c-16 -14 -41 -11 -53 2c-11 14 -9 40 5 52c34 31 70 50 124 50c84 0 135 -35 135 -128v-173h7c21 0 37 -12 37 -36
c0 -22 -16 -36 -37 -36h-35zM269 391v66c-35 -15 -72 -30 -106 -44c-11 -4 -39 -21 -39 -49c0 -23 26 -30 39 -30c42 0 72 18 106 57zM347 137h-259c-22 0 -38 13 -38 37c0 25 17 37 40 37h259c22 0 39 -13 39 -37c0 -25 -18 -37 -41 -37z" />
    <glyph glyph-name="ordmasculine" unicode="&#xba;" horiz-adv-x="428" 
d="M219 265c-107 0 -169 82 -169 189c0 111 75 188 169 188c92 0 167 -77 167 -188c0 -107 -60 -189 -167 -189zM219 338c60 0 95 51 95 116c0 66 -44 114 -95 114c-52 0 -95 -48 -95 -114c0 -65 34 -116 95 -116zM352 137h-259c-23 0 -38 13 -38 37c0 25 17 37 40 37h259
c22 0 39 -13 39 -37c0 -25 -18 -37 -41 -37z" />
    <glyph glyph-name="infinity" unicode="&#x221e;" horiz-adv-x="810" 
d="M340 268l-64 62c-12 13 -26 17 -50 17c-44 0 -71 -36 -71 -79s29 -80 71 -80c25 0 41 5 52 17zM723 268c0 -89 -71 -160 -159 -160c-41 0 -76 15 -102 39c-22 21 -39 39 -63 62l-61 -59c-30 -25 -70 -42 -106 -42c-89 0 -162 71 -162 159c0 87 73 160 162 160
c41 0 82 -21 102 -40l63 -63l58 58c29 28 65 45 109 45c88 0 159 -74 159 -159zM513 324l-57 -54l61 -65c11 -12 26 -17 51 -17c42 0 71 37 71 80s-27 79 -71 79c-23 0 -42 -9 -55 -23z" />
    <glyph glyph-name="partialdiff" unicode="&#x2202;" horiz-adv-x="528" 
d="M205 637c88 0 163 -59 209 -133c36 -56 57 -129 57 -216c0 -200 -81 -293 -216 -293c-118 0 -195 87 -195 217c0 116 83 204 194 204c51 0 96 -16 132 -39c-8 33 -21 61 -35 84h1c-37 61 -83 102 -147 102c-21 0 -48 -3 -60 -8c-17 -5 -36 -3 -47 15c-12 21 -13 37 18 52
c22 10 62 15 89 15zM134 212c0 -86 46 -142 121 -142c96 0 139 80 141 187c-25 51 -75 85 -141 85c-69 0 -121 -54 -121 -130z" />
    <glyph glyph-name="brokenbar" unicode="&#xa6;" horiz-adv-x="285" 
d="M194 227v-235c0 -22 -16 -39 -37 -39s-37 13 -37 39v234c0 22 16 40 37 40s37 -13 37 -39zM194 642v-234c0 -22 -16 -39 -37 -39s-37 13 -37 39v234c0 22 16 39 37 39s37 -12 37 -39z" />
    <glyph glyph-name="florin" unicode="&#x192;" horiz-adv-x="679" 
d="M501 282h-123c-19 -74 -38 -151 -57 -224c-19 -74 -58 -163 -155 -163c-51 0 -88 33 -100 75c-6 21 -8 50 26 57l-1 -1c19 5 42 0 46 -30c5 -17 17 -27 30 -27c42 0 67 45 81 100c19 76 35 135 54 213h-85c-22 0 -38 9 -38 37c0 25 16 37 37 37h104l23 83
c19 74 49 163 154 163c54 0 96 -27 114 -79c8 -25 -1 -43 -20 -51c-20 -6 -43 -4 -50 26v-1c-6 21 -25 30 -44 30c-44 0 -63 -36 -80 -101l-19 -70h102c23 0 38 -9 38 -37c0 -25 -16 -37 -37 -37z" />
    <glyph glyph-name="pi" unicode="&#x3c0;" horiz-adv-x="571" 
d="M91 89c18 -9 50 -19 77 -19c20 0 38 11 38 69v270h-97c-28 0 -38 16 -38 37s10 37 39 37h430c32 0 38 -19 38 -37c0 -21 -12 -37 -37 -37h-81v-372c0 -24 -16 -38 -37 -38c-23 0 -37 14 -37 38v372h-106v-271c0 -90 -31 -143 -112 -143c-40 0 -74 9 -115 30h1
c-18 9 -26 35 -14 53c12 19 36 18 51 11z" />
    <glyph glyph-name="oslash" unicode="&#xf8;" horiz-adv-x="568" 
d="M286 -5c-39 0 -74 9 -103 25l-21 -31c-14 -21 -39 -22 -56 -6v-1c-24 19 -20 31 -5 54l24 33c-38 45 -55 102 -55 172c0 143 97 242 216 242c36 0 73 -11 103 -27l17 25l-1 -1c19 33 44 27 61 15c22 -13 22 -29 4 -56l-22 -34c32 -42 55 -100 55 -164
c0 -139 -79 -246 -217 -246zM144 241c0 -40 9 -76 25 -105l176 257c-18 10 -38 16 -59 16c-78 0 -142 -71 -142 -168zM286 70c90 0 143 75 143 171c0 38 -9 70 -26 97c-61 -88 -115 -164 -177 -256c17 -8 38 -12 60 -12z" />
    <glyph glyph-name="summation" unicode="&#x2211;" horiz-adv-x="495" 
d="M359 335v-2c0 -9 -3 -18 -8 -28c-56 -98 -112 -198 -171 -301h225c27 0 40 -17 40 -38c0 -19 -13 -37 -40 -37h-286c-37 0 -54 27 -32 63l-1 -1l194 343l-194 344l1 -1c-22 36 -5 62 32 62h286c27 0 40 -19 40 -37c0 -21 -13 -37 -40 -37h-225l171 -302c4 -8 8 -19 8 -28
z" />
    <glyph glyph-name="daggerdbl" unicode="&#x2021;" horiz-adv-x="433" 
d="M85 227h115v182h-111c-26 0 -41 11 -41 37c0 25 13 37 40 37h112v113c0 27 13 41 38 41c26 0 36 -14 36 -41v-113h113c23 0 40 -12 40 -37c0 -26 -15 -37 -39 -37h-114v-182h110c27 0 41 -11 41 -37c0 -25 -12 -37 -40 -37h-111v-113c0 -26 -14 -41 -38 -41
c-26 0 -36 15 -36 41v113h-114c-22 0 -40 12 -40 37c0 26 16 37 39 37z" />
    <glyph glyph-name="radical" unicode="&#x221a;" horiz-adv-x="654" 
d="M20 249l105 55c19 10 55 1 64 -24l-1 1l95 -235c80 222 160 442 240 664c9 24 35 29 51 22h-1c19 -7 26 -31 20 -48l1 1l-259 -717c-10 -25 -31 -40 -49 -40c-29 0 -41 17 -52 41l-102 255l-78 -41c-13 -6 -40 0 -49 15c-8 16 -1 40 15 51z" />
    <glyph glyph-name="logicalnot" unicode="&#xac;" horiz-adv-x="603" 
d="M101 310h368c25 0 47 -22 47 -46v-163c0 -22 -16 -38 -39 -38c-19 0 -36 16 -36 38v135h-340c-23 0 -41 7 -41 37c0 28 18 37 41 37z" />
    <glyph glyph-name="product" unicode="&#x220f;" horiz-adv-x="600" 
d="M491 700v-731c0 -22 -16 -39 -37 -39s-37 13 -37 39v697h-223v-697c0 -22 -16 -39 -37 -39s-37 13 -37 39v731c0 11 6 24 18 34c6 5 14 6 23 6h290c4 0 9 -1 13 -3l-3 2c18 -3 30 -16 30 -39z" />
    <glyph glyph-name="integral" unicode="&#x222b;" horiz-adv-x="593" 
d="M173 -4c7 -20 24 -27 36 -27c39 0 54 42 54 94v512c0 77 33 168 133 168c54 0 88 -26 113 -75c10 -21 6 -44 -17 -55c-24 -10 -41 0 -51 24l1 -1c-11 23 -27 33 -46 33c-40 0 -59 -39 -59 -94v-512c0 -77 -29 -168 -128 -168c-56 0 -84 27 -104 72c-11 25 5 47 17 52
c20 7 44 1 51 -23z" />
    <glyph glyph-name="Omega" unicode="&#x2126;" horiz-adv-x="676" 
d="M344 577c-108 0 -178 -87 -178 -187c0 -69 33 -141 119 -163h-1c20 -5 33 -23 33 -43v-140c0 -23 -17 -44 -43 -44h-121c-21 0 -40 14 -40 38s19 38 40 38h88v84c-92 30 -151 114 -151 230c0 159 116 263 254 263s253 -104 253 -263c0 -116 -58 -200 -150 -230v-84h87
c22 0 41 -14 41 -38s-19 -38 -41 -38h-120c-26 0 -43 21 -43 44v140c0 20 13 38 32 43h-1c87 22 119 94 119 163c0 100 -69 187 -177 187z" />
    <glyph glyph-name="lozenge" unicode="&#x25ca;" horiz-adv-x="569" 
d="M272 547l-157 -228l157 -227c52 76 103 148 157 227zM34 319c0 11 3 19 9 28l174 253c2 2 3 4 4 6c12 17 21 32 51 32c28 0 38 -14 51 -34l3 -4l173 -253c7 -9 9 -17 9 -28s-2 -19 -9 -28l-173 -253l-3 -4c-13 -20 -23 -34 -51 -34c-30 0 -39 14 -51 32c-1 2 -2 4 -4 6
l-174 255c-6 8 -9 17 -9 26z" />
    <glyph glyph-name="Eth" unicode="&#xd0;" horiz-adv-x="603" 
d="M139 365v245c0 31 16 43 45 43h90c185 0 268 -171 269 -335c2 -155 -78 -318 -248 -318h-111c-29 0 -45 12 -45 43v246h-60c-23 0 -39 9 -39 38c0 26 17 38 38 38h61zM216 289v-213h78c119 0 172 121 172 242c0 111 -55 259 -192 259h-58v-212h73c23 0 39 -9 39 -38
c0 -26 -17 -38 -38 -38h-74z" />
    <glyph glyph-name="Lslash" unicode="&#x141;" horiz-adv-x="502" 
d="M145 347v268c0 26 14 38 39 38c24 0 38 -12 38 -38v-217l77 54c16 11 39 15 55 -7c14 -20 5 -42 -12 -54l-120 -84v-231h224c26 0 38 -14 38 -38s-12 -38 -38 -38h-261c-22 0 -40 15 -40 41v215l-48 -33c-16 -11 -44 -12 -56 11c-10 19 -4 40 13 51z" />
    <glyph glyph-name="lslash" unicode="&#x142;" horiz-adv-x="433" 
d="M373 377l-94 -65v-238h100c25 0 37 -13 37 -37c0 -23 -12 -37 -37 -37h-267c-24 0 -38 16 -38 37c0 24 14 37 38 37h93v188l-71 -49c-15 -10 -41 -9 -54 11c-11 17 -5 39 12 50l113 77v227l-68 -23c-19 -8 -41 1 -48 21c-6 19 2 40 23 48l104 38c29 10 63 -1 63 -43v-218
l52 36c15 11 38 14 53 -7c15 -20 5 -42 -11 -53z" />
    <glyph glyph-name="eth" unicode="&#xf0;" horiz-adv-x="494" 
d="M391 591l-31 -21c21 -20 39 -43 54 -66c34 -55 57 -131 57 -216c0 -200 -81 -293 -216 -293c-118 0 -195 87 -195 217c0 116 83 204 194 204c51 0 96 -16 132 -39c-8 33 -21 61 -35 84h1c-16 27 -33 49 -53 66c-26 -17 -50 -33 -75 -51c-20 -10 -39 -13 -56 7
c-13 20 -8 43 13 53c20 13 14 10 38 27h-14c-21 0 -48 -3 -60 -8c-17 -5 -36 -3 -47 15c-12 21 -13 37 18 52c22 10 62 15 89 15c32 0 65 -8 92 -22l50 35c20 10 38 12 54 -8c13 -19 7 -41 -10 -51zM134 212c0 -86 46 -142 121 -142c96 0 139 80 141 187
c-25 51 -75 85 -141 85c-69 0 -121 -54 -121 -130z" />
    <glyph glyph-name="Delta" unicode="&#x2206;" horiz-adv-x="728" 
d="M570 0h-403c-30 0 -51 30 -38 61l-1 -2l191 544c11 22 27 34 50 34c21 0 38 -12 49 -34l191 -544l-1 2c12 -31 -7 -61 -38 -61zM214 73h309c-54 158 -97 278 -154 444c-53 -153 -101 -286 -155 -444z" />
    <glyph glyph-name="Thorn" unicode="&#xde;" horiz-adv-x="578" 
d="M196 143v-103c0 -22 -17 -40 -38 -40s-38 13 -38 40v573c0 24 17 40 38 40s38 -13 38 -40v-87h113c110 0 197 -71 197 -195c0 -117 -86 -188 -200 -188h-110zM196 450v-231h110c72 0 124 45 124 112c0 74 -52 119 -121 119h-113z" />
    <glyph glyph-name="thorn" unicode="&#xfe;" horiz-adv-x="612" 
d="M211 597v-159c28 23 68 45 130 45c128 0 211 -106 211 -249s-97 -239 -213 -239c-59 0 -100 20 -128 41v-175c0 -26 -16 -39 -37 -39s-37 9 -37 39v736c0 24 16 39 37 39s37 -13 37 -39zM211 303v-114c0 -63 53 -119 128 -119s139 67 139 164c0 102 -55 175 -137 175
c-70 0 -130 -61 -130 -106z" />
    <glyph glyph-name="lessequal" unicode="&#x2264;" horiz-adv-x="661" 
d="M125 309c0 25 18 42 34 48l331 129c21 8 45 -5 52 -23s-1 -46 -19 -53l-264 -101l263 -100c20 -8 29 -37 20 -54c-9 -18 -29 -32 -52 -23l-331 129c-16 6 -34 24 -34 48zM506 0h-343c-29 0 -43 20 -43 42c0 20 16 41 41 41h345c23 0 41 -16 41 -41c0 -22 -18 -42 -41 -42
z" />
    <glyph glyph-name="greaterequal" unicode="&#x2265;" horiz-adv-x="661" 
d="M545 309c0 -24 -18 -42 -34 -48l-331 -129c-23 -9 -43 5 -52 23c-9 17 0 46 20 54l263 100l-264 101c-18 7 -26 35 -19 53s31 31 52 23l331 -129c16 -6 34 -23 34 -48zM507 0h-343c-23 0 -41 20 -41 42c0 25 18 41 41 41h345c25 0 41 -21 41 -41c0 -22 -14 -42 -43 -42z
" />
    <glyph glyph-name="currency" unicode="&#xa4;" horiz-adv-x="545" 
d="M45 65l49 49c-25 37 -41 84 -41 130c0 45 16 91 40 128l-45 47c-16 16 -19 38 1 57s38 12 54 -5l46 -45c35 24 77 40 125 40c45 0 88 -15 123 -37l40 41c14 16 43 21 58 8c17 -14 20 -39 4 -56l-48 -47c27 -37 44 -85 44 -131c0 -47 -16 -94 -43 -132l50 -49
c19 -19 24 -33 1 -56c-16 -16 -40 -14 -58 3l-48 49c-35 -24 -78 -39 -123 -39c-46 0 -91 14 -127 40l-47 -48c-16 -16 -30 -26 -55 -6c-17 15 -17 41 0 59zM128 244c0 -81 65 -148 146 -148c80 0 145 67 145 148c0 80 -65 146 -145 146c-81 0 -146 -66 -146 -146z" />
    <glyph glyph-name="uni00AD" unicode="&#xad;" horiz-adv-x="427" 
d="M357 231h-272c-27 0 -45 17 -45 44c0 28 21 43 44 43h273c21 0 43 -15 43 -43c0 -27 -22 -44 -43 -44z" />
    <glyph glyph-name="nbspace" unicode="&#xa0;" horiz-adv-x="350" 
 />
    <glyph glyph-name="uni2113" unicode="&#x2113;" horiz-adv-x="305" 
d="M361 191c15 -20 8 -40 -7 -55c-98 -84 -184 -140 -252 -140c-61 0 -87 42 -90 96c-15 -10 -32 -7 -45 9c-12 14 -10 39 2 52c20 20 35 34 53 55c24 167 71 313 108 378c31 50 79 81 113 77c35 -3 68 -31 68 -89c0 -10 -1 -22 -3 -31c-12 -64 -81 -210 -212 -362
c-3 -24 -5 -46 -7 -70c-3 -26 -2 -40 13 -40c49 0 112 47 204 122l-2 -1c15 16 42 20 57 -1zM194 549c-23 -37 -49 -119 -70 -209c67 98 107 183 112 218c2 17 0 27 -4 28c-5 1 -17 -2 -38 -37z" />
    <glyph glyph-name="uni2219" unicode="&#x2219;" horiz-adv-x="348" 
d="M120 245c0 38 33 71 71 71s72 -33 72 -71s-34 -72 -72 -72s-71 34 -71 72z" />
    <glyph glyph-name="uni2215" unicode="&#x2215;" horiz-adv-x="472" 
d="M483 579l-361 -564c-14 -17 -35 -20 -52 -9c-16 12 -22 31 -9 52l359 560c14 20 36 23 54 12c17 -12 22 -30 9 -51z" />
    <glyph glyph-name="uni02C9" unicode="&#x2c9;" 
d="M384 564h-153c-28 0 -46 17 -46 43c0 28 21 44 44 44h155c21 0 42 -16 42 -44c0 -26 -21 -43 -42 -43z" />
    <glyph glyph-name="apple" horiz-adv-x="717" 
d="M638 0l-69 69l-71 -69l-67 69l-74 -69l-73 69l-67 -69l-70 69l-70 -69h-27v446c0 161 138 307 308 307c171 0 309 -146 309 -307v-446h-29zM418 398c0 -41 34 -75 75 -75s75 34 75 75s-34 75 -75 75s-75 -34 -75 -75zM150 398c0 -41 34 -75 75 -75s75 34 75 75
s-34 75 -75 75s-75 -34 -75 -75z" />
    <glyph glyph-name="quotedbl" unicode="&#x22;" horiz-adv-x="575" 
d="M196 367c-21 0 -33 14 -33 34v101l-31 91c-12 36 16 60 44 60h59c25 0 54 -23 42 -59l-31 -93v-100c0 -20 -9 -34 -32 -34h-18zM406 367c-21 0 -33 14 -33 34v101l-31 91c-12 36 16 60 44 60h59c25 0 54 -23 42 -59l-31 -93v-100c0 -20 -9 -34 -32 -34h-18z" />
    <glyph glyph-name="numbersign" unicode="#" horiz-adv-x="706" 
d="M127 455h85c8 49 17 98 24 147c4 21 21 35 40 35c23 0 38 -16 34 -43c-8 -52 -14 -86 -22 -139h115c7 49 16 98 23 147c4 21 21 35 40 35c23 0 38 -16 35 -43c-8 -52 -15 -86 -23 -139h112c24 0 41 -18 36 -42l1 2c-2 -19 -17 -34 -41 -34h-119l-20 -116h105
c24 0 41 -19 36 -42l1 2c-2 -19 -17 -35 -41 -35h-112l-24 -156c-4 -19 -19 -34 -39 -34c-22 0 -39 16 -35 43l23 147h-115l-24 -156c-4 -19 -19 -34 -39 -34c-22 0 -39 16 -36 43l24 147h-85c-25 0 -41 16 -39 36c5 21 19 39 42 39h93l20 116h-78c-25 0 -41 15 -39 35
c5 22 19 39 42 39zM277 381l-20 -116h115l20 116h-115z" />
    <glyph glyph-name="zero.alt" horiz-adv-x="571" 
d="M70 322c0 196 70 332 214 332c143 0 217 -136 217 -332s-70 -327 -217 -327c-189 0 -214 197 -214 327zM425 322c0 56 -7 107 -20 148l-218 -346c22 -35 54 -55 97 -55c97 0 141 103 141 253zM145 322c0 -44 3 -83 11 -117l213 335c-22 25 -50 40 -85 40
c-95 0 -139 -110 -139 -258z" />
    </font>
</defs>
</svg>
